<?xml version="1.0" encoding="UTF-8" standalone="no"?>
<!DOCTYPE svg PUBLIC "-//W3C//DTD SVG 1.1//EN" "http://www.w3.org/Graphics/SVG/1.1/DTD/svg11.dtd">
<svg xmlns="http://www.w3.org/2000/svg" version="1.1" viewBox="0.00 0.00 174.00 266.00">
<g stroke-width="2.00" fill="none" stroke-linecap="butt">
<path stroke="#7d3915" vector-effect="non-scaling-stroke" d="
  M 155.98 144.03
  L 156.04 259.20"
/>
<path stroke="#7d3915" vector-effect="non-scaling-stroke" d="
  M 89.69 265.31
  Q 91.08 264.64 92.38 264.06
  Q 93.78 263.42 94.60 262.47
  Q 96.77 259.96 98.38 257.44
  C 99.00 256.48 98.97 255.26 99.56 254.23
  Q 100.23 253.07 100.41 251.73
  C 101.58 243.18 100.96 233.00 95.20 226.31
  Q 91.67 222.21 86.40 222.79
  Q 86.03 222.83 85.88 223.17
  L 85.78 223.43"
/>
<path stroke="#ebb894" vector-effect="non-scaling-stroke" d="
  M 85.78 223.43
  Q 83.70 222.87 81.96 224.46
  Q 73.65 232.11 76.12 243.86"
/>
<path stroke="#7d3915" vector-effect="non-scaling-stroke" d="
  M 76.12 243.86
  Q 75.66 247.35 77.43 253.31
  Q 79.91 261.66 85.50 264.77"
/>
<path stroke="#7d3915" vector-effect="non-scaling-stroke" d="
  M 20.55 254.78
  L 20.68 143.70"
/>
<path stroke="#c24917" vector-effect="non-scaling-stroke" d="
  M 32.01 49.60
  Q 34.67 67.84 50.67 77.39
  C 59.34 82.56 67.76 79.26 73.15 71.41
  Q 75.08 68.61 76.58 66.84"
/>
<path stroke="#ebb894" vector-effect="non-scaling-stroke" d="
  M 76.58 66.84
  C 75.99 74.52 75.00 82.12 74.19 89.71
  Q 70.33 125.84 66.31 162.01
  C 66.07 164.23 66.09 170.06 68.39 171.09"
/>
<path stroke="#c24917" vector-effect="non-scaling-stroke" d="
  M 68.39 171.09
  Q 67.52 176.31 69.88 180.11
  Q 72.73 184.70 85.07 200.43
  Q 86.37 202.09 87.76 203.41
  Q 88.93 204.52 89.91 203.25
  Q 97.69 193.18 105.13 182.08
  C 106.71 179.72 107.69 177.21 107.44 174.50
  Q 104.55 143.72 98.00 83.01
  Q 97.45 77.93 96.77 72.88"
/>
<path stroke="#c24917" vector-effect="non-scaling-stroke" d="
  M 101.76 68.55
  Q 105.69 76.67 114.32 79.37
  Q 117.30 80.31 119.64 79.91
  C 128.27 78.43 134.51 72.58 139.80 65.74
  C 143.95 60.36 146.30 53.65 146.76 47.18
  Q 146.96 44.40 145.83 46.94
  Q 143.99 51.09 140.03 54.98"
/>
<path stroke="#fa8084" vector-effect="non-scaling-stroke" d="
  M 80.74 71.11
  Q 79.65 86.45 78.01 102.00
  Q 74.55 134.68 71.07 167.36
  Q 70.90 168.91 70.23 170.28"
/>
<path stroke="#d69081" vector-effect="non-scaling-stroke" d="
  M 70.23 170.28
  Q 69.54 171.05 68.39 171.09"
/>
<path stroke="#c24917" vector-effect="non-scaling-stroke" d="
  M 111.00 70.03
  Q 112.44 72.06 114.89 71.54"
/>
<path stroke="#d69081" vector-effect="non-scaling-stroke" d="
  M 62.24 71.27
  Q 68.88 68.73 71.19 61.67"
/>
<path stroke="#d69081" vector-effect="non-scaling-stroke" d="
  M 77.00 65.84
  Q 76.49 66.17 76.58 66.84"
/>
<path stroke="#91807f" vector-effect="non-scaling-stroke" d="
  M 76.12 243.86
  C 76.95 245.12 77.89 246.95 79.51 246.98
  C 82.83 247.04 83.52 241.51 83.27 239.06
  Q 83.22 238.48 83.80 238.53
  Q 87.00 238.84 88.23 234.97
  Q 90.05 229.27 87.21 224.51
  Q 86.86 223.92 85.78 223.43"
/>
<path stroke="#d11107" vector-effect="non-scaling-stroke" d="
  M 94.99 73.73
  Q 95.59 75.62 95.43 77.00
  Q 95.03 80.39 95.31 83.38
  Q 95.64 87.00 95.66 90.34
  C 95.70 95.03 96.78 99.62 96.59 104.35
  Q 96.44 108.31 97.38 112.14
  C 97.80 113.88 97.32 115.60 97.83 117.16
  Q 98.43 119.03 98.50 121.12
  Q 98.69 127.19 99.38 131.35
  Q 100.45 137.76 100.35 144.24
  Q 100.30 147.45 100.80 150.18
  Q 101.37 153.26 101.59 156.14
  Q 101.63 156.68 101.93 157.13
  Q 102.36 157.75 102.35 158.26
  Q 102.33 160.96 103.12 163.55
  Q 103.35 164.31 103.32 165.02
  C 103.27 166.39 104.11 167.17 104.19 168.58
  Q 104.45 173.50 100.91 178.31
  Q 95.09 186.19 89.09 194.58
  A 1.44 1.44 0.0 0 1 86.94 194.80
  C 85.54 193.51 84.73 191.74 83.56 190.24
  Q 78.63 183.96 74.10 177.82
  Q 72.09 175.11 71.03 171.55
  Q 70.92 171.19 70.61 170.98
  Q 70.28 170.77 70.23 170.28"
/>
</g>
<path fill="#fffffe" d="
  M 148.17 11.28
  C 148.70 9.40 149.33 7.25 149.62 5.19
  Q 149.62 5.14 149.62 5.09
  Q 149.60 5.01 149.54 5.06
  Q 149.47 5.13 149.50 5.21
  Q 150.72 8.69 148.35 11.37
  Q 148.04 11.72 148.17 11.28
  Z"
/>
<path fill="#d7712a" d="
  M 155.98 144.03
  L 156.04 259.20
  L 89.69 265.31
  Q 91.08 264.64 92.38 264.06
  Q 93.78 263.42 94.60 262.47
  Q 96.77 259.96 98.38 257.44
  C 99.00 256.48 98.97 255.26 99.56 254.23
  Q 100.23 253.07 100.41 251.73
  C 101.58 243.18 100.96 233.00 95.20 226.31
  Q 91.67 222.21 86.40 222.79
  Q 86.03 222.83 85.88 223.17
  L 85.78 223.43
  Q 83.70 222.87 81.96 224.46
  Q 73.65 232.11 76.12 243.86
  Q 75.66 247.35 77.43 253.31
  Q 79.91 261.66 85.50 264.77
  L 22.09 256.50
  Q 21.60 256.44 21.42 255.98
  Q 21.13 255.22 20.55 254.78
  L 20.68 143.70
  Q 24.59 89.21 28.20 34.50
  Q 28.44 30.91 29.18 27.62
  Q 29.21 27.47 29.38 27.50
  Q 29.53 27.53 29.51 27.68
  Q 28.20 39.49 32.01 49.60
  Q 34.67 67.84 50.67 77.39
  C 59.34 82.56 67.76 79.26 73.15 71.41
  Q 75.08 68.61 76.58 66.84
  C 75.99 74.52 75.00 82.12 74.19 89.71
  Q 70.33 125.84 66.31 162.01
  C 66.07 164.23 66.09 170.06 68.39 171.09
  Q 67.52 176.31 69.88 180.11
  Q 72.73 184.70 85.07 200.43
  Q 86.37 202.09 87.76 203.41
  Q 88.93 204.52 89.91 203.25
  Q 97.69 193.18 105.13 182.08
  C 106.71 179.72 107.69 177.21 107.44 174.50
  Q 104.55 143.72 98.00 83.01
  Q 97.45 77.93 96.77 72.88
  L 101.76 68.55
  Q 105.69 76.67 114.32 79.37
  Q 117.30 80.31 119.64 79.91
  C 128.27 78.43 134.51 72.58 139.80 65.74
  C 143.95 60.36 146.30 53.65 146.76 47.18
  Q 146.96 44.40 145.83 46.94
  Q 143.99 51.09 140.03 54.98
  L 145.60 44.96
  Q 145.84 44.53 146.25 44.23
  Q 146.76 43.88 146.80 43.24
  Q 147.81 30.42 147.60 16.03
  Q 147.60 15.94 147.69 15.94
  L 147.70 15.94
  Q 147.87 15.94 147.87 16.11
  Q 147.78 30.57 148.86 45.01
  Q 152.56 94.53 155.98 144.03
  Z"
/>
<path fill="#ad2104" d="
  M 101.76 68.55
  L 104.10 66.39
  A 1.13 1.12 40.6 0 1 105.49 66.29
  L 111.00 70.03
  Q 112.44 72.06 114.89 71.54
  Q 119.96 73.03 123.53 70.29
  Q 131.70 64.02 135.11 60.84
  Q 136.76 59.30 140.03 54.98
  Q 143.99 51.09 145.83 46.94
  Q 146.96 44.40 146.76 47.18
  C 146.30 53.65 143.95 60.36 139.80 65.74
  C 134.51 72.58 128.27 78.43 119.64 79.91
  Q 117.30 80.31 114.32 79.37
  Q 105.69 76.67 101.76 68.55
  Z"
/>
<path fill="#ad2104" d="
  M 32.01 49.60
  Q 36.03 54.50 39.76 58.88
  Q 43.43 63.19 46.54 65.37
  Q 50.23 67.95 54.20 70.79
  Q 55.91 72.01 58.04 72.07
  Q 60.29 72.12 62.24 71.27
  Q 68.88 68.73 71.19 61.67
  Q 73.19 60.12 77.00 65.84
  Q 76.49 66.17 76.58 66.84
  Q 75.08 68.61 73.15 71.41
  C 67.76 79.26 59.34 82.56 50.67 77.39
  Q 34.67 67.84 32.01 49.60
  Z"
/>
<path fill="#fffffe" d="
  M 71.19 61.67
  Q 68.88 68.73 62.24 71.27
  Q 67.50 68.07 71.19 61.67
  Z"
/>
<path fill="#fffffe" d="
  M 77.00 65.84
  L 80.74 71.11
  Q 79.65 86.45 78.01 102.00
  Q 74.55 134.68 71.07 167.36
  Q 70.90 168.91 70.23 170.28
  Q 69.54 171.05 68.39 171.09
  C 66.09 170.06 66.07 164.23 66.31 162.01
  Q 70.33 125.84 74.19 89.71
  C 75.00 82.12 75.99 74.52 76.58 66.84
  Q 76.49 66.17 77.00 65.84
  Z"
/>
<path fill="#d7712a" d="
  M 111.00 70.03
  L 114.89 71.54
  Q 112.44 72.06 111.00 70.03
  Z"
/>
<path fill="#f50109" d="
  M 80.74 71.11
  Q 87.13 73.16 91.24 73.96
  Q 92.92 74.29 94.99 73.73
  Q 95.59 75.62 95.43 77.00
  Q 95.03 80.39 95.31 83.38
  Q 95.64 87.00 95.66 90.34
  C 95.70 95.03 96.78 99.62 96.59 104.35
  Q 96.44 108.31 97.38 112.14
  C 97.80 113.88 97.32 115.60 97.83 117.16
  Q 98.43 119.03 98.50 121.12
  Q 98.69 127.19 99.38 131.35
  Q 100.45 137.76 100.35 144.24
  Q 100.30 147.45 100.80 150.18
  Q 101.37 153.26 101.59 156.14
  Q 101.63 156.68 101.93 157.13
  Q 102.36 157.75 102.35 158.26
  Q 102.33 160.96 103.12 163.55
  Q 103.35 164.31 103.32 165.02
  C 103.27 166.39 104.11 167.17 104.19 168.58
  Q 104.45 173.50 100.91 178.31
  Q 95.09 186.19 89.09 194.58
  A 1.44 1.44 0.0 0 1 86.94 194.80
  C 85.54 193.51 84.73 191.74 83.56 190.24
  Q 78.63 183.96 74.10 177.82
  Q 72.09 175.11 71.03 171.55
  Q 70.92 171.19 70.61 170.98
  Q 70.28 170.77 70.23 170.28
  Q 70.90 168.91 71.07 167.36
  Q 74.55 134.68 78.01 102.00
  Q 79.65 86.45 80.74 71.11
  Z"
/>
<path fill="#ad2104" d="
  M 96.77 72.88
  Q 97.45 77.93 98.00 83.01
  Q 104.55 143.72 107.44 174.50
  C 107.69 177.21 106.71 179.72 105.13 182.08
  Q 97.69 193.18 89.91 203.25
  Q 88.93 204.52 87.76 203.41
  Q 86.37 202.09 85.07 200.43
  Q 72.73 184.70 69.88 180.11
  Q 67.52 176.31 68.39 171.09
  Q 69.54 171.05 70.23 170.28
  Q 70.28 170.77 70.61 170.98
  Q 70.92 171.19 71.03 171.55
  Q 72.09 175.11 74.10 177.82
  Q 78.63 183.96 83.56 190.24
  C 84.73 191.74 85.54 193.51 86.94 194.80
  A 1.44 1.44 0.0 0 0 89.09 194.58
  Q 95.09 186.19 100.91 178.31
  Q 104.45 173.50 104.19 168.58
  C 104.11 167.17 103.27 166.39 103.32 165.02
  Q 103.35 164.31 103.12 163.55
  Q 102.33 160.96 102.35 158.26
  Q 102.36 157.75 101.93 157.13
  Q 101.63 156.68 101.59 156.14
  Q 101.37 153.26 100.80 150.18
  Q 100.30 147.45 100.35 144.24
  Q 100.45 137.76 99.38 131.35
  Q 98.69 127.19 98.50 121.12
  Q 98.43 119.03 97.83 117.16
  C 97.32 115.60 97.80 113.88 97.38 112.14
  Q 96.44 108.31 96.59 104.35
  C 96.78 99.62 95.70 95.03 95.66 90.34
  Q 95.64 87.00 95.31 83.38
  Q 95.03 80.39 95.43 77.00
  Q 95.59 75.62 94.99 73.73
  Q 95.55 73.09 96.77 72.88
  Z"
/>
<path fill="#230000" d="
  M 20.68 143.70
  L 20.55 254.78
  L 4.94 252.02
  Q 4.43 251.93 4.43 251.41
  Q 4.45 210.07 4.52 168.40
  Q 4.53 163.16 2.39 159.86
  Q 2.11 159.42 1.59 159.29
  L 1.30 159.22
  Q 0.72 159.08 1.19 158.72
  L 20.68 143.70
  Z"
/>
<path fill="#230000" d="
  M 155.98 144.03
  L 173.20 160.94
  A 0.68 0.67 32.2 0 1 173.36 161.64
  Q 172.10 165.12 172.08 168.54
  Q 171.94 204.35 172.12 247.97
  Q 172.14 251.90 173.47 257.94
  Q 173.57 258.43 173.07 258.45
  L 156.04 259.20
  L 155.98 144.03
  Z"
/>
<path fill="#230000" d="
  M 89.69 265.31
  L 85.50 264.77
  Q 79.91 261.66 77.43 253.31
  Q 75.66 247.35 76.12 243.86
  C 76.95 245.12 77.89 246.95 79.51 246.98
  C 82.83 247.04 83.52 241.51 83.27 239.06
  Q 83.22 238.48 83.80 238.53
  Q 87.00 238.84 88.23 234.97
  Q 90.05 229.27 87.21 224.51
  Q 86.86 223.92 85.78 223.43
  L 85.88 223.17
  Q 86.03 222.83 86.40 222.79
  Q 91.67 222.21 95.20 226.31
  C 100.96 233.00 101.58 243.18 100.41 251.73
  Q 100.23 253.07 99.56 254.23
  C 98.97 255.26 99.00 256.48 98.38 257.44
  Q 96.77 259.96 94.60 262.47
  Q 93.78 263.42 92.38 264.06
  Q 91.08 264.64 89.69 265.31
  Z"
/>
<path fill="#fffffe" d="
  M 85.78 223.43
  Q 86.86 223.92 87.21 224.51
  Q 90.05 229.27 88.23 234.97
  Q 87.00 238.84 83.80 238.53
  Q 83.22 238.48 83.27 239.06
  C 83.52 241.51 82.83 247.04 79.51 246.98
  C 77.89 246.95 76.95 245.12 76.12 243.86
  Q 73.65 232.11 81.96 224.46
  Q 83.70 222.87 85.78 223.43
  Z"
/>
</svg>
