<?xml version="1.0" encoding="UTF-8" standalone="no"?>
<!DOCTYPE svg PUBLIC "-//W3C//DTD SVG 1.1//EN" "http://www.w3.org/Graphics/SVG/1.1/DTD/svg11.dtd">
<svg xmlns="http://www.w3.org/2000/svg" version="1.1" viewBox="0.00 0.00 180.00 332.00">
<g stroke-width="2.00" fill="none" stroke-linecap="butt">
<path stroke="#928080" vector-effect="non-scaling-stroke" d="
  M 151.78 250.82
  Q 148.96 250.76 146.01 252.55
  Q 143.58 254.03 140.46 256.16"
/>
<path stroke="#772609" vector-effect="non-scaling-stroke" d="
  M 140.46 256.16
  Q 135.47 250.20 136.98 243.38
  Q 137.78 239.78 141.04 234.93
  C 155.37 213.56 162.63 185.29 163.90 159.25
  Q 165.13 133.76 161.12 112.58"
/>
<path stroke="#7e3815" vector-effect="non-scaling-stroke" d="
  M 161.12 112.58
  Q 156.06 82.50 139.48 57.21
  Q 133.39 47.93 126.59 41.77
  C 113.88 30.26 97.54 23.51 81.31 27.18
  Q 66.21 30.59 54.80 41.06
  C 40.36 54.29 30.61 72.82 24.77 91.54
  Q 7.70 146.28 24.48 202.64
  Q 29.43 219.23 39.40 234.56
  Q 41.39 237.63 42.18 240.28
  C 43.86 245.89 40.37 251.23 34.36 251.78"
/>
<path stroke="#928080" vector-effect="non-scaling-stroke" d="
  M 34.36 251.78
  Q 30.90 250.76 28.47 251.46"
/>
<path stroke="#d15e1e" vector-effect="non-scaling-stroke" d="
  M 161.12 112.58
  Q 161.26 113.83 160.90 115.03
  Q 160.76 115.49 160.31 115.67
  Q 159.57 115.96 159.17 116.67
  A 4.42 4.17 -31.6 0 0 158.62 118.72
  Q 158.56 123.26 158.84 127.69
  Q 159.11 131.89 159.02 136.51
  Q 158.69 153.70 156.50 168.10
  Q 155.42 175.16 153.48 183.90
  Q 152.13 189.99 150.08 196.09
  Q 148.06 202.09 145.79 208.02
  Q 142.62 216.33 137.62 226.33
  C 136.45 228.66 134.94 230.52 133.73 232.79
  Q 132.48 235.15 130.84 237.53
  Q 127.31 242.64 124.00 246.96
  Q 119.12 253.35 110.64 260.06
  A 1.12 1.08 72.5 0 0 110.23 260.88
  L 109.78 272.74"
/>
<path stroke="#ebb895" vector-effect="non-scaling-stroke" d="
  M 109.78 272.74
  Q 105.98 274.20 104.25 274.46
  Q 98.13 275.39 91.98 276.99"
/>
<path stroke="#e6391b" vector-effect="non-scaling-stroke" d="
  M 91.98 276.99
  Q 90.99 277.62 88.83 277.53"
/>
<path stroke="#ebb895" vector-effect="non-scaling-stroke" d="
  M 88.83 277.53
  Q 88.70 276.95 87.71 276.82
  C 67.94 274.13 49.98 264.84 34.36 251.78"
/>
<path stroke="#c23a15" vector-effect="non-scaling-stroke" d="
  M 83.44 63.37
  Q 83.15 68.72 87.82 72.23
  Q 90.18 74.01 93.04 73.06
  C 98.51 71.26 100.38 65.87 100.71 60.69
  Q 100.91 57.53 99.62 54.43"
/>
<path stroke="#e9a875" vector-effect="non-scaling-stroke" d="
  M 99.62 54.43
  Q 99.55 49.86 97.67 45.76"
/>
<path stroke="#ebb895" vector-effect="non-scaling-stroke" d="
  M 97.67 45.76
  C 94.98 41.22 90.65 37.73 86.32 42.25
  C 81.84 46.92 80.80 53.40 82.61 59.91
  Q 83.14 61.80 83.44 63.37"
/>
<path stroke="#fdf0e0" vector-effect="non-scaling-stroke" d="
  M 97.67 45.76
  L 97.37 50.82
  Q 97.34 51.33 97.03 51.75
  Q 96.74 52.13 96.71 52.59
  Q 96.44 58.10 93.26 62.54
  C 91.41 65.13 88.18 65.15 85.40 65.88"
/>
<path stroke="#d68280" vector-effect="non-scaling-stroke" d="
  M 85.40 65.88
  L 83.44 63.37"
/>
<path stroke="#d47260" vector-effect="non-scaling-stroke" d="
  M 99.62 54.43
  Q 98.83 58.53 98.20 61.00
  Q 97.11 65.25 93.80 67.58
  C 90.76 69.72 87.46 68.70 85.40 65.88"
/>
<path stroke="#ebb895" vector-effect="non-scaling-stroke" d="
  M 36.14 84.95
  C 32.38 92.11 31.27 98.34 35.38 105.41
  A 2.49 2.48 -23.8 0 0 38.29 106.53
  C 42.24 105.28 42.95 99.96 43.98 96.50
  Q 44.73 94.02 46.80 90.68
  C 52.30 81.80 58.72 72.37 66.67 65.86
  C 69.56 63.49 70.12 59.96 69.73 56.40
  C 69.36 53.03 65.76 47.79 61.80 50.98
  Q 58.42 53.70 54.98 57.53
  Q 44.38 69.30 36.14 84.95"
/>
<path stroke="#ebb895" vector-effect="non-scaling-stroke" d="
  M 58.38 114.85
  Q 55.92 115.26 54.82 116.57
  Q 51.78 120.23 52.30 126.01"
/>
<path stroke="#7e3815" vector-effect="non-scaling-stroke" d="
  M 52.30 126.01
  Q 49.79 135.29 53.86 143.93
  C 55.42 147.25 57.89 150.61 61.89 150.96"
/>
<path stroke="#c23a15" vector-effect="non-scaling-stroke" d="
  M 61.89 150.96
  Q 69.51 152.16 71.81 142.41"
/>
<path stroke="#7e3815" vector-effect="non-scaling-stroke" d="
  M 71.81 142.41
  Q 75.06 131.09 69.87 120.28
  Q 68.67 117.77 66.61 115.89
  Q 62.32 111.99 58.38 114.85"
/>
<path stroke="#690200" vector-effect="non-scaling-stroke" d="
  M 71.81 142.41
  Q 68.93 146.30 66.91 148.41
  Q 64.92 150.50 61.89 150.96"
/>
<path stroke="#928080" vector-effect="non-scaling-stroke" d="
  M 52.30 126.01
  Q 53.57 129.43 55.71 130.60
  Q 56.16 130.84 56.66 130.73
  Q 58.60 130.31 59.43 129.00
  Q 64.07 121.71 58.38 114.85"
/>
<path stroke="#ebb895" vector-effect="non-scaling-stroke" d="
  M 114.70 115.78
  Q 112.63 114.57 110.87 116.62
  Q 107.46 120.61 108.29 126.50"
/>
<path stroke="#7e3815" vector-effect="non-scaling-stroke" d="
  M 108.29 126.50
  Q 107.27 131.40 108.12 136.87
  Q 109.30 144.36 114.47 149.24
  Q 116.52 151.16 120.41 150.95"
/>
<path stroke="#c23a15" vector-effect="non-scaling-stroke" d="
  M 120.41 150.95
  Q 127.99 150.18 129.05 139.39"
/>
<path stroke="#7e3815" vector-effect="non-scaling-stroke" d="
  M 129.05 139.39
  Q 130.25 133.11 128.88 126.49
  Q 127.39 119.29 122.79 115.44
  Q 118.33 111.71 114.70 115.78"
/>
<path stroke="#690200" vector-effect="non-scaling-stroke" d="
  M 129.05 139.39
  Q 126.67 146.74 120.41 150.95"
/>
<path stroke="#928080" vector-effect="non-scaling-stroke" d="
  M 108.29 126.50
  L 110.51 130.03
  A 2.10 2.10 0.0 0 0 113.34 130.72
  C 118.48 127.72 117.56 119.99 114.70 115.78"
/>
<path stroke="#ebb895" vector-effect="non-scaling-stroke" d="
  M 28.08 117.68
  C 25.72 119.86 25.18 123.93 25.13 126.94
  Q 25.00 135.47 24.85 144.15
  C 24.78 147.99 25.88 154.02 29.76 155.53
  Q 30.26 155.72 30.74 155.51
  C 33.80 154.23 34.88 149.87 34.95 146.80
  Q 35.20 136.00 35.18 125.19
  Q 35.17 122.14 34.09 119.44
  C 33.11 116.96 30.25 115.67 28.08 117.68"
/>
<path stroke="#c23a15" vector-effect="non-scaling-stroke" d="
  M 95.65 233.71
  Q 101.70 233.59 106.38 231.14
  Q 111.77 228.31 116.48 222.97
  Q 122.85 215.75 126.77 204.60"
/>
<path stroke="#7e3815" vector-effect="non-scaling-stroke" d="
  M 126.77 204.60
  Q 131.31 200.94 131.60 194.51
  Q 131.79 190.30 130.38 185.58
  C 128.77 180.22 123.42 176.56 119.12 182.72
  C 114.45 189.41 111.23 197.30 104.92 202.80
  Q 93.57 212.69 80.04 205.92
  C 72.27 202.04 66.57 190.75 62.41 183.39
  C 58.78 176.95 52.75 179.05 50.57 185.07
  C 48.21 191.61 49.07 198.01 53.17 203.85
  C 56.95 209.23 59.83 215.09 64.42 220.34
  Q 72.96 230.12 85.83 233.70
  Q 89.10 234.61 95.65 233.71"
/>
<path stroke="#690200" vector-effect="non-scaling-stroke" d="
  M 126.77 204.60
  Q 123.98 208.64 121.41 212.93
  Q 117.83 218.93 115.92 221.13
  Q 107.91 230.37 95.65 233.71"
/>
<path stroke="#e5a589" vector-effect="non-scaling-stroke" d="
  M 140.46 256.16
  Q 130.52 263.41 118.55 269.34
  Q 114.81 271.20 109.78 272.74"
/>
<path stroke="#fdf0e0" vector-effect="non-scaling-stroke" d="
  M 149.15 293.17
  Q 138.22 307.21 125.74 317.22
  Q 122.62 319.72 120.22 320.34
  C 115.32 321.60 108.66 312.58 106.54 308.84
  Q 106.10 308.06 105.48 307.40
  C 104.84 306.71 104.72 306.33 104.64 305.46"
/>
<path stroke="#fa8185" vector-effect="non-scaling-stroke" d="
  M 104.64 305.46
  C 105.26 298.02 103.67 289.31 99.08 283.25
  C 97.33 280.94 94.30 279.33 91.98 276.99"
/>
<path stroke="#fa8185" vector-effect="non-scaling-stroke" d="
  M 88.83 277.53
  C 81.13 281.21 77.56 288.36 76.48 296.46"
/>
<path stroke="#ebb895" vector-effect="non-scaling-stroke" d="
  M 76.48 296.46
  L 75.97 299.82"
/>
<path stroke="#fdf0e0" vector-effect="non-scaling-stroke" d="
  M 75.97 299.82
  Q 75.16 307.02 71.78 311.26
  C 69.19 314.52 63.94 322.08 58.78 319.79
  C 52.71 317.10 47.28 311.60 42.55 306.95
  Q 39.50 303.95 36.69 300.34
  Q 34.09 296.99 31.37 293.27"
/>
<path stroke="#f87166" vector-effect="non-scaling-stroke" d="
  M 104.64 305.46
  L 103.81 310.84"
/>
<path stroke="#d10306" vector-effect="non-scaling-stroke" d="
  M 103.81 310.84
  Q 102.56 312.84 102.59 315.89
  Q 102.60 316.58 102.12 317.06
  C 99.80 319.35 98.94 321.80 95.83 323.64
  Q 92.93 325.37 91.24 325.87
  Q 90.24 326.17 88.69 325.76
  Q 87.48 325.45 86.57 324.59
  Q 84.19 322.33 81.71 319.96
  Q 78.71 317.10 78.14 312.83
  Q 78.08 312.32 77.59 312.18
  Q 76.82 311.95 76.30 312.43"
/>
<path stroke="#f87166" vector-effect="non-scaling-stroke" d="
  M 76.30 312.43
  L 76.36 308.20"
/>
<path stroke="#e6391b" vector-effect="non-scaling-stroke" d="
  M 76.36 308.20
  L 76.48 296.46"
/>
<path stroke="#e9a875" vector-effect="non-scaling-stroke" d="
  M 75.97 299.82
  L 76.36 308.20"
/>
<path stroke="#d47260" vector-effect="non-scaling-stroke" d="
  M 76.30 312.43
  L 73.94 318.82"
/>
<path stroke="#d47260" vector-effect="non-scaling-stroke" d="
  M 109.81 325.70
  Q 105.44 318.96 103.81 310.84"
/>
</g>
<path fill="#240000" d="
  M 85.62 0.00
  L 89.82 0.00
  Q 103.32 0.65 115.49 6.21
  Q 118.52 7.60 127.80 13.85
  C 132.05 16.71 135.30 20.08 138.88 23.49
  C 140.42 24.97 141.09 26.88 142.67 28.33
  Q 144.32 29.84 145.73 31.74
  Q 151.28 39.25 155.82 46.89
  C 158.44 51.29 160.32 56.13 162.62 60.68
  Q 165.25 65.87 167.06 71.27
  C 168.78 76.43 170.50 81.31 171.74 86.07
  Q 173.95 94.54 175.80 102.25
  C 176.28 104.24 176.29 106.25 176.75 108.30
  Q 179.11 118.90 179.53 129.75
  Q 179.61 131.92 180.00 134.08
  L 180.00 155.54
  C 179.54 161.09 179.44 166.87 178.76 172.12
  Q 177.36 182.86 175.85 190.91
  Q 170.56 218.99 157.07 245.05
  Q 155.11 248.84 151.78 250.82
  Q 148.96 250.76 146.01 252.55
  Q 143.58 254.03 140.46 256.16
  Q 135.47 250.20 136.98 243.38
  Q 137.78 239.78 141.04 234.93
  C 155.37 213.56 162.63 185.29 163.90 159.25
  Q 165.13 133.76 161.12 112.58
  Q 156.06 82.50 139.48 57.21
  Q 133.39 47.93 126.59 41.77
  C 113.88 30.26 97.54 23.51 81.31 27.18
  Q 66.21 30.59 54.80 41.06
  C 40.36 54.29 30.61 72.82 24.77 91.54
  Q 7.70 146.28 24.48 202.64
  Q 29.43 219.23 39.40 234.56
  Q 41.39 237.63 42.18 240.28
  C 43.86 245.89 40.37 251.23 34.36 251.78
  Q 30.90 250.76 28.47 251.46
  Q 18.95 237.77 13.81 223.25
  Q 10.25 213.19 6.98 201.13
  Q 4.52 192.04 2.04 174.16
  Q 1.70 171.68 1.75 169.16
  C 1.80 166.86 0.98 164.94 0.91 162.70
  C 0.67 155.25 0.11 148.36 0.62 140.46
  C 1.02 134.19 1.04 127.88 2.13 121.77
  C 2.64 118.85 2.73 115.97 3.12 113.06
  Q 5.10 98.37 9.75 83.30
  C 11.19 78.65 12.50 73.81 14.31 69.33
  Q 21.27 52.11 27.45 42.24
  Q 29.97 38.21 36.29 30.04
  Q 40.08 25.16 43.79 21.46
  Q 49.17 16.10 52.31 14.04
  Q 55.02 12.27 57.58 10.61
  Q 70.40 2.32 85.62 0.00
  Z"
/>
<path fill="#d7702a" d="
  M 161.12 112.58
  Q 161.26 113.83 160.90 115.03
  Q 160.76 115.49 160.31 115.67
  Q 159.57 115.96 159.17 116.67
  A 4.42 4.17 -31.6 0 0 158.62 118.72
  Q 158.56 123.26 158.84 127.69
  Q 159.11 131.89 159.02 136.51
  Q 158.69 153.70 156.50 168.10
  Q 155.42 175.16 153.48 183.90
  Q 152.13 189.99 150.08 196.09
  Q 148.06 202.09 145.79 208.02
  Q 142.62 216.33 137.62 226.33
  C 136.45 228.66 134.94 230.52 133.73 232.79
  Q 132.48 235.15 130.84 237.53
  Q 127.31 242.64 124.00 246.96
  Q 119.12 253.35 110.64 260.06
  A 1.12 1.08 72.5 0 0 110.23 260.88
  L 109.78 272.74
  Q 105.98 274.20 104.25 274.46
  Q 98.13 275.39 91.98 276.99
  Q 90.99 277.62 88.83 277.53
  Q 88.70 276.95 87.71 276.82
  C 67.94 274.13 49.98 264.84 34.36 251.78
  C 40.37 251.23 43.86 245.89 42.18 240.28
  Q 41.39 237.63 39.40 234.56
  Q 29.43 219.23 24.48 202.64
  Q 7.70 146.28 24.77 91.54
  C 30.61 72.82 40.36 54.29 54.80 41.06
  Q 66.21 30.59 81.31 27.18
  C 97.54 23.51 113.88 30.26 126.59 41.77
  Q 133.39 47.93 139.48 57.21
  Q 156.06 82.50 161.12 112.58
  Z
  M 83.44 63.37
  Q 83.15 68.72 87.82 72.23
  Q 90.18 74.01 93.04 73.06
  C 98.51 71.26 100.38 65.87 100.71 60.69
  Q 100.91 57.53 99.62 54.43
  Q 99.55 49.86 97.67 45.76
  C 94.98 41.22 90.65 37.73 86.32 42.25
  C 81.84 46.92 80.80 53.40 82.61 59.91
  Q 83.14 61.80 83.44 63.37
  Z
  M 36.14 84.95
  C 32.38 92.11 31.27 98.34 35.38 105.41
  A 2.49 2.48 -23.8 0 0 38.29 106.53
  C 42.24 105.28 42.95 99.96 43.98 96.50
  Q 44.73 94.02 46.80 90.68
  C 52.30 81.80 58.72 72.37 66.67 65.86
  C 69.56 63.49 70.12 59.96 69.73 56.40
  C 69.36 53.03 65.76 47.79 61.80 50.98
  Q 58.42 53.70 54.98 57.53
  Q 44.38 69.30 36.14 84.95
  Z
  M 58.38 114.85
  Q 55.92 115.26 54.82 116.57
  Q 51.78 120.23 52.30 126.01
  Q 49.79 135.29 53.86 143.93
  C 55.42 147.25 57.89 150.61 61.89 150.96
  Q 69.51 152.16 71.81 142.41
  Q 75.06 131.09 69.87 120.28
  Q 68.67 117.77 66.61 115.89
  Q 62.32 111.99 58.38 114.85
  Z
  M 114.70 115.78
  Q 112.63 114.57 110.87 116.62
  Q 107.46 120.61 108.29 126.50
  Q 107.27 131.40 108.12 136.87
  Q 109.30 144.36 114.47 149.24
  Q 116.52 151.16 120.41 150.95
  Q 127.99 150.18 129.05 139.39
  Q 130.25 133.11 128.88 126.49
  Q 127.39 119.29 122.79 115.44
  Q 118.33 111.71 114.70 115.78
  Z
  M 28.08 117.68
  C 25.72 119.86 25.18 123.93 25.13 126.94
  Q 25.00 135.47 24.85 144.15
  C 24.78 147.99 25.88 154.02 29.76 155.53
  Q 30.26 155.72 30.74 155.51
  C 33.80 154.23 34.88 149.87 34.95 146.80
  Q 35.20 136.00 35.18 125.19
  Q 35.17 122.14 34.09 119.44
  C 33.11 116.96 30.25 115.67 28.08 117.68
  Z
  M 95.65 233.71
  Q 101.70 233.59 106.38 231.14
  Q 111.77 228.31 116.48 222.97
  Q 122.85 215.75 126.77 204.60
  Q 131.31 200.94 131.60 194.51
  Q 131.79 190.30 130.38 185.58
  C 128.77 180.22 123.42 176.56 119.12 182.72
  C 114.45 189.41 111.23 197.30 104.92 202.80
  Q 93.57 212.69 80.04 205.92
  C 72.27 202.04 66.57 190.75 62.41 183.39
  C 58.78 176.95 52.75 179.05 50.57 185.07
  C 48.21 191.61 49.07 198.01 53.17 203.85
  C 56.95 209.23 59.83 215.09 64.42 220.34
  Q 72.96 230.12 85.83 233.70
  Q 89.10 234.61 95.65 233.71
  Z"
/>
<path fill="#ffffff" d="
  M 97.67 45.76
  L 97.37 50.82
  Q 97.34 51.33 97.03 51.75
  Q 96.74 52.13 96.71 52.59
  Q 96.44 58.10 93.26 62.54
  C 91.41 65.13 88.18 65.15 85.40 65.88
  L 83.44 63.37
  Q 83.14 61.80 82.61 59.91
  C 80.80 53.40 81.84 46.92 86.32 42.25
  C 90.65 37.73 94.98 41.22 97.67 45.76
  Z"
/>
<path fill="#fbe0c0" d="
  M 97.67 45.76
  Q 99.55 49.86 99.62 54.43
  Q 98.83 58.53 98.20 61.00
  Q 97.11 65.25 93.80 67.58
  C 90.76 69.72 87.46 68.70 85.40 65.88
  C 88.18 65.15 91.41 65.13 93.26 62.54
  Q 96.44 58.10 96.71 52.59
  Q 96.74 52.13 97.03 51.75
  Q 97.34 51.33 97.37 50.82
  L 97.67 45.76
  Z"
/>
<path fill="#ffffff" d="
  M 36.14 84.95
  Q 44.38 69.30 54.98 57.53
  Q 58.42 53.70 61.80 50.98
  C 65.76 47.79 69.36 53.03 69.73 56.40
  C 70.12 59.96 69.56 63.49 66.67 65.86
  C 58.72 72.37 52.30 81.80 46.80 90.68
  Q 44.73 94.02 43.98 96.50
  C 42.95 99.96 42.24 105.28 38.29 106.53
  A 2.49 2.48 -23.8 0 1 35.38 105.41
  C 31.27 98.34 32.38 92.11 36.14 84.95
  Z"
/>
<path fill="#ad0400" d="
  M 83.44 63.37
  L 85.40 65.88
  C 87.46 68.70 90.76 69.72 93.80 67.58
  Q 97.11 65.25 98.20 61.00
  Q 98.83 58.53 99.62 54.43
  Q 100.91 57.53 100.71 60.69
  C 100.38 65.87 98.51 71.26 93.04 73.06
  Q 90.18 74.01 87.82 72.23
  Q 83.15 68.72 83.44 63.37
  Z"
/>
<path fill="#ca4b12" d="
  M 161.12 112.58
  Q 165.13 133.76 163.90 159.25
  C 162.63 185.29 155.37 213.56 141.04 234.93
  Q 137.78 239.78 136.98 243.38
  Q 135.47 250.20 140.46 256.16
  Q 130.52 263.41 118.55 269.34
  Q 114.81 271.20 109.78 272.74
  L 110.23 260.88
  A 1.12 1.08 72.5 0 1 110.64 260.06
  Q 119.12 253.35 124.00 246.96
  Q 127.31 242.64 130.84 237.53
  Q 132.48 235.15 133.73 232.79
  C 134.94 230.52 136.45 228.66 137.62 226.33
  Q 142.62 216.33 145.79 208.02
  Q 148.06 202.09 150.08 196.09
  Q 152.13 189.99 153.48 183.90
  Q 155.42 175.16 156.50 168.10
  Q 158.69 153.70 159.02 136.51
  Q 159.11 131.89 158.84 127.69
  Q 158.56 123.26 158.62 118.72
  A 4.42 4.17 -31.6 0 1 159.17 116.67
  Q 159.57 115.96 160.31 115.67
  Q 160.76 115.49 160.90 115.03
  Q 161.26 113.83 161.12 112.58
  Z"
/>
<path fill="#240000" d="
  M 71.81 142.41
  Q 68.93 146.30 66.91 148.41
  Q 64.92 150.50 61.89 150.96
  C 57.89 150.61 55.42 147.25 53.86 143.93
  Q 49.79 135.29 52.30 126.01
  Q 53.57 129.43 55.71 130.60
  Q 56.16 130.84 56.66 130.73
  Q 58.60 130.31 59.43 129.00
  Q 64.07 121.71 58.38 114.85
  Q 62.32 111.99 66.61 115.89
  Q 68.67 117.77 69.87 120.28
  Q 75.06 131.09 71.81 142.41
  Z"
/>
<path fill="#240000" d="
  M 129.05 139.39
  Q 126.67 146.74 120.41 150.95
  Q 116.52 151.16 114.47 149.24
  Q 109.30 144.36 108.12 136.87
  Q 107.27 131.40 108.29 126.50
  L 110.51 130.03
  A 2.10 2.10 0.0 0 0 113.34 130.72
  C 118.48 127.72 117.56 119.99 114.70 115.78
  Q 118.33 111.71 122.79 115.44
  Q 127.39 119.29 128.88 126.49
  Q 130.25 133.11 129.05 139.39
  Z"
/>
<path fill="#ffffff" d="
  M 58.38 114.85
  Q 64.07 121.71 59.43 129.00
  Q 58.60 130.31 56.66 130.73
  Q 56.16 130.84 55.71 130.60
  Q 53.57 129.43 52.30 126.01
  Q 51.78 120.23 54.82 116.57
  Q 55.92 115.26 58.38 114.85
  Z"
/>
<path fill="#ffffff" d="
  M 114.70 115.78
  C 117.56 119.99 118.48 127.72 113.34 130.72
  A 2.10 2.10 0.0 0 1 110.51 130.03
  L 108.29 126.50
  Q 107.46 120.61 110.87 116.62
  Q 112.63 114.57 114.70 115.78
  Z"
/>
<path fill="#ffffff" d="
  M 25.13 126.94
  C 25.18 123.93 25.72 119.86 28.08 117.68
  C 30.25 115.67 33.11 116.96 34.09 119.44
  Q 35.17 122.14 35.18 125.19
  Q 35.20 136.00 34.95 146.80
  C 34.88 149.87 33.80 154.23 30.74 155.51
  Q 30.26 155.72 29.76 155.53
  C 25.88 154.02 24.78 147.99 24.85 144.15
  Q 25.00 135.47 25.13 126.94
  Z"
/>
<path fill="#ad0400" d="
  M 129.05 139.39
  Q 127.99 150.18 120.41 150.95
  Q 126.67 146.74 129.05 139.39
  Z"
/>
<path fill="#ad0400" d="
  M 71.81 142.41
  Q 69.51 152.16 61.89 150.96
  Q 64.92 150.50 66.91 148.41
  Q 68.93 146.30 71.81 142.41
  Z"
/>
<path fill="#240000" d="
  M 126.77 204.60
  Q 123.98 208.64 121.41 212.93
  Q 117.83 218.93 115.92 221.13
  Q 107.91 230.37 95.65 233.71
  Q 89.10 234.61 85.83 233.70
  Q 72.96 230.12 64.42 220.34
  C 59.83 215.09 56.95 209.23 53.17 203.85
  C 49.07 198.01 48.21 191.61 50.57 185.07
  C 52.75 179.05 58.78 176.95 62.41 183.39
  C 66.57 190.75 72.27 202.04 80.04 205.92
  Q 93.57 212.69 104.92 202.80
  C 111.23 197.30 114.45 189.41 119.12 182.72
  C 123.42 176.56 128.77 180.22 130.38 185.58
  Q 131.79 190.30 131.60 194.51
  Q 131.31 200.94 126.77 204.60
  Z"
/>
<path fill="#ad0400" d="
  M 126.77 204.60
  Q 122.85 215.75 116.48 222.97
  Q 111.77 228.31 106.38 231.14
  Q 101.70 233.59 95.65 233.71
  Q 107.91 230.37 115.92 221.13
  Q 117.83 218.93 121.41 212.93
  Q 123.98 208.64 126.77 204.60
  Z"
/>
<path fill="#ffffff" d="
  M 151.78 250.82
  Q 151.56 254.46 151.58 258.19
  Q 151.61 262.62 150.98 265.63
  C 150.23 269.21 149.55 272.44 149.45 276.20
  Q 149.21 285.68 149.15 293.17
  Q 138.22 307.21 125.74 317.22
  Q 122.62 319.72 120.22 320.34
  C 115.32 321.60 108.66 312.58 106.54 308.84
  Q 106.10 308.06 105.48 307.40
  C 104.84 306.71 104.72 306.33 104.64 305.46
  C 105.26 298.02 103.67 289.31 99.08 283.25
  C 97.33 280.94 94.30 279.33 91.98 276.99
  Q 98.13 275.39 104.25 274.46
  Q 105.98 274.20 109.78 272.74
  Q 114.81 271.20 118.55 269.34
  Q 130.52 263.41 140.46 256.16
  Q 143.58 254.03 146.01 252.55
  Q 148.96 250.76 151.78 250.82
  Z"
/>
<path fill="#ffffff" d="
  M 28.47 251.46
  Q 30.90 250.76 34.36 251.78
  C 49.98 264.84 67.94 274.13 87.71 276.82
  Q 88.70 276.95 88.83 277.53
  C 81.13 281.21 77.56 288.36 76.48 296.46
  L 75.97 299.82
  Q 75.16 307.02 71.78 311.26
  C 69.19 314.52 63.94 322.08 58.78 319.79
  C 52.71 317.10 47.28 311.60 42.55 306.95
  Q 39.50 303.95 36.69 300.34
  Q 34.09 296.99 31.37 293.27
  Q 31.05 291.12 31.36 288.40
  C 32.14 281.61 32.17 274.10 29.27 267.72
  Q 29.00 267.14 29.10 266.51
  Q 30.46 258.05 28.47 251.46
  Z"
/>
<path fill="#f4020b" d="
  M 91.98 276.99
  C 94.30 279.33 97.33 280.94 99.08 283.25
  C 103.67 289.31 105.26 298.02 104.64 305.46
  L 103.81 310.84
  Q 102.56 312.84 102.59 315.89
  Q 102.60 316.58 102.12 317.06
  C 99.80 319.35 98.94 321.80 95.83 323.64
  Q 92.93 325.37 91.24 325.87
  Q 90.24 326.17 88.69 325.76
  Q 87.48 325.45 86.57 324.59
  Q 84.19 322.33 81.71 319.96
  Q 78.71 317.10 78.14 312.83
  Q 78.08 312.32 77.59 312.18
  Q 76.82 311.95 76.30 312.43
  L 76.36 308.20
  L 76.48 296.46
  C 77.56 288.36 81.13 281.21 88.83 277.53
  Q 90.99 277.62 91.98 276.99
  Z"
/>
<path fill="#fbe0c0" d="
  M 31.37 293.27
  Q 34.09 296.99 36.69 300.34
  Q 39.50 303.95 42.55 306.95
  C 47.28 311.60 52.71 317.10 58.78 319.79
  C 63.94 322.08 69.19 314.52 71.78 311.26
  Q 75.16 307.02 75.97 299.82
  L 76.36 308.20
  L 76.30 312.43
  L 73.94 318.82
  C 70.93 322.96 66.29 330.41 60.01 330.07
  C 57.27 329.92 55.43 328.12 53.23 326.60
  Q 45.58 321.34 43.64 319.13
  C 39.49 314.40 35.77 309.99 33.02 305.01
  Q 31.55 302.35 31.37 293.27
  Z"
/>
<path fill="#fbe0c0" d="
  M 149.15 293.17
  Q 149.28 298.15 148.73 301.10
  C 148.54 302.13 147.87 302.36 147.47 303.19
  Q 142.58 313.24 137.94 317.98
  Q 134.84 321.14 126.20 327.74
  Q 125.01 328.65 123.76 329.03
  C 122.45 329.44 121.52 330.15 120.05 330.01
  Q 114.22 329.43 109.81 325.70
  Q 105.44 318.96 103.81 310.84
  L 104.64 305.46
  C 104.72 306.33 104.84 306.71 105.48 307.40
  Q 106.10 308.06 106.54 308.84
  C 108.66 312.58 115.32 321.60 120.22 320.34
  Q 122.62 319.72 125.74 317.22
  Q 138.22 307.21 149.15 293.17
  Z"
/>
<path fill="#d7702a" d="
  M 76.48 296.46
  L 76.36 308.20
  L 75.97 299.82
  L 76.48 296.46
  Z"
/>
<path fill="#ad0400" d="
  M 103.81 310.84
  Q 105.44 318.96 109.81 325.70
  L 107.08 324.24
  Q 106.63 324.01 106.23 324.32
  L 96.32 332.00
  L 93.01 332.00
  L 84.84 329.92
  A 4.23 4.22 79.8 0 1 82.41 328.23
  C 80.27 325.14 77.37 320.78 73.94 318.82
  L 76.30 312.43
  Q 76.82 311.95 77.59 312.18
  Q 78.08 312.32 78.14 312.83
  Q 78.71 317.10 81.71 319.96
  Q 84.19 322.33 86.57 324.59
  Q 87.48 325.45 88.69 325.76
  Q 90.24 326.17 91.24 325.87
  Q 92.93 325.37 95.83 323.64
  C 98.94 321.80 99.80 319.35 102.12 317.06
  Q 102.60 316.58 102.59 315.89
  Q 102.56 312.84 103.81 310.84
  Z"
/>
</svg>
