<?xml version="1.0" encoding="UTF-8" standalone="no"?>
<!DOCTYPE svg PUBLIC "-//W3C//DTD SVG 1.1//EN" "http://www.w3.org/Graphics/SVG/1.1/DTD/svg11.dtd">
<svg xmlns="http://www.w3.org/2000/svg" version="1.1" viewBox="0.00 0.00 119.00 211.00">
<g stroke-width="2.00" fill="none" stroke-linecap="butt">
<path stroke="#7d3815" vector-effect="non-scaling-stroke" d="
  M 50.90 2.95
  Q 49.49 10.19 47.67 16.74
  Q 40.87 41.22 34.19 65.79"
/>
<path stroke="#918080" vector-effect="non-scaling-stroke" d="
  M 34.19 65.79
  L 27.63 87.19"
/>
<path stroke="#8e7061" vector-effect="non-scaling-stroke" d="
  M 27.63 87.19
  Q 26.03 91.37 26.06 95.20"
/>
<path stroke="#641202" vector-effect="non-scaling-stroke" d="
  M 26.06 95.20
  Q 26.24 95.97 25.52 96.18
  Q 25.05 96.32 24.80 96.74
  Q 24.09 97.91 24.31 99.14"
/>
<path stroke="#7d3815" vector-effect="non-scaling-stroke" d="
  M 24.31 99.14
  Q 19.66 114.08 17.67 124.25
  Q 15.19 136.97 17.78 150.97"
/>
<path stroke="#76260b" vector-effect="non-scaling-stroke" d="
  M 17.78 150.97
  C 19.19 161.84 25.25 176.61 35.57 181.69
  C 42.76 185.24 51.69 184.78 57.76 179.23
  C 65.54 172.11 68.53 162.29 71.34 152.38"
/>
<path stroke="#641202" vector-effect="non-scaling-stroke" d="
  M 71.34 152.38
  L 75.35 138.92"
/>
<path stroke="#8e7061" vector-effect="non-scaling-stroke" d="
  M 75.35 138.92
  L 79.20 126.89"
/>
<path stroke="#918080" vector-effect="non-scaling-stroke" d="
  M 79.20 126.89
  L 85.31 107.18"
/>
<path stroke="#7d3815" vector-effect="non-scaling-stroke" d="
  M 85.31 107.18
  Q 90.00 91.33 95.01 75.76
  C 96.48 71.21 99.73 65.73 104.13 63.52
  C 107.84 61.65 113.15 61.83 118.40 62.00"
/>
<path stroke="#b8370d" vector-effect="non-scaling-stroke" d="
  M 71.34 152.38
  Q 72.00 150.14 67.53 149.45"
/>
<path stroke="#bf4a17" vector-effect="non-scaling-stroke" d="
  M 67.53 149.45
  C 60.35 146.10 57.22 137.83 55.57 130.90
  Q 54.29 125.52 52.60 118.54
  C 50.74 110.88 45.34 114.09 40.98 116.70
  C 37.58 118.73 33.33 117.03 30.98 114.40
  Q 26.91 109.87 25.76 101.93
  C 25.62 100.92 24.94 99.90 24.31 99.14"
/>
<path stroke="#d08263" vector-effect="non-scaling-stroke" d="
  M 75.35 138.92
  C 72.87 139.68 70.11 140.97 67.78 140.87
  C 61.59 140.60 58.51 133.04 57.18 127.60
  Q 55.47 120.66 53.90 114.15
  C 52.97 110.30 50.54 105.18 45.51 107.00
  Q 43.16 107.86 40.83 109.08
  C 31.28 114.12 27.19 101.90 26.06 95.20"
/>
<path stroke="#fcf0e1" vector-effect="non-scaling-stroke" d="
  M 79.20 126.89
  Q 77.22 128.17 75.23 129.50
  Q 72.60 131.26 70.99 131.45
  C 65.14 132.14 61.50 123.13 60.29 118.63
  Q 58.20 110.90 55.37 104.42
  C 53.59 100.32 49.38 96.74 44.71 98.41
  Q 42.01 99.37 38.96 100.67
  Q 37.27 101.39 35.89 100.37
  C 32.16 97.61 30.61 95.12 29.19 90.86
  Q 28.57 89.00 27.63 87.19"
/>
<path stroke="#d15e1f" vector-effect="non-scaling-stroke" d="
  M 67.53 149.45
  Q 63.55 161.55 54.53 170.16
  C 51.29 173.25 47.84 175.36 43.35 174.95
  Q 37.39 174.41 31.75 169.77
  Q 30.18 168.48 29.46 166.74
  Q 27.66 162.41 24.78 158.16
  Q 24.69 158.03 24.55 157.96
  Q 24.26 157.82 23.97 157.69
  Q 23.56 157.51 23.29 157.15
  Q 22.29 155.84 20.67 155.19
  Q 19.80 154.84 19.17 153.99
  Q 18.24 152.73 17.78 150.97"
/>
<path stroke="#ebb894" vector-effect="non-scaling-stroke" d="
  M 85.31 107.18
  Q 83.92 101.98 79.72 102.45
  C 75.38 102.92 73.06 106.82 70.49 109.95
  A 0.65 0.64 54.7 0 1 69.39 109.76
  Q 65.78 100.10 62.72 90.67
  C 59.70 81.36 52.72 71.42 41.65 79.53
  A 1.00 1.00 0.0 0 1 40.08 78.92
  Q 38.83 72.60 34.84 69.23
  A 1.17 1.16 19.5 0 1 34.44 68.40
  Q 34.42 67.36 34.86 66.37
  A 0.37 0.37 0.0 0 0 34.60 65.85
  Q 34.42 65.80 34.19 65.79"
/>
<path stroke="#bf4a17" vector-effect="non-scaling-stroke" d="
  M 30.57 147.33
  Q 28.65 149.70 31.54 153.95
  C 35.31 159.51 40.78 160.23 44.85 154.82
  Q 49.30 148.91 46.94 142.31"
/>
<path stroke="#e8a876" vector-effect="non-scaling-stroke" d="
  M 46.94 142.31
  Q 47.79 137.07 46.27 131.46"
/>
<path stroke="#ebb894" vector-effect="non-scaling-stroke" d="
  M 46.27 131.46
  Q 45.11 126.55 41.07 123.66
  C 37.92 121.41 34.74 122.52 32.60 125.25
  Q 29.74 128.91 28.96 132.86
  Q 27.39 140.85 30.57 147.33"
/>
<path stroke="#fcf0e1" vector-effect="non-scaling-stroke" d="
  M 46.27 131.46
  Q 44.94 141.96 38.57 148.33
  A 1.20 1.19 -70.3 0 1 37.82 148.69
  L 31.81 149.29"
/>
<path stroke="#d39182" vector-effect="non-scaling-stroke" d="
  M 31.81 149.29
  L 30.57 147.33"
/>
<path stroke="#d08263" vector-effect="non-scaling-stroke" d="
  M 46.94 142.31
  Q 45.09 148.30 43.73 149.98
  C 40.29 154.24 34.36 154.67 31.81 149.29"
/>
</g>
<path fill="#220000" d="
  M 50.90 2.95
  Q 49.49 10.19 47.67 16.74
  Q 40.87 41.22 34.19 65.79
  L 27.63 87.19
  Q 26.03 91.37 26.06 95.20
  Q 26.24 95.97 25.52 96.18
  Q 25.05 96.32 24.80 96.74
  Q 24.09 97.91 24.31 99.14
  Q 19.66 114.08 17.67 124.25
  Q 15.19 136.97 17.78 150.97
  C 19.19 161.84 25.25 176.61 35.57 181.69
  C 42.76 185.24 51.69 184.78 57.76 179.23
  C 65.54 172.11 68.53 162.29 71.34 152.38
  L 75.35 138.92
  L 79.20 126.89
  L 85.31 107.18
  Q 90.00 91.33 95.01 75.76
  C 96.48 71.21 99.73 65.73 104.13 63.52
  C 107.84 61.65 113.15 61.83 118.40 62.00
  L 118.42 86.98
  Q 118.42 87.89 117.51 87.81
  Q 112.29 87.35 109.78 90.19
  Q 107.68 92.57 106.72 95.75
  Q 92.73 142.43 83.20 172.56
  Q 80.76 180.28 76.47 188.23
  Q 71.94 196.62 65.01 202.75
  C 59.70 207.44 52.21 210.82 45.11 210.20
  C 42.56 209.98 40.06 210.24 37.51 209.52
  C 26.57 206.46 18.02 197.94 12.55 187.99
  Q 4.18 172.78 1.75 155.53
  Q -1.09 135.36 2.53 115.89
  Q 4.18 107.03 7.25 96.46
  Q 20.88 49.69 31.98 9.94
  Q 33.15 5.76 34.10 0.63
  A 0.64 0.64 0.0 0 1 34.84 0.11
  L 50.90 2.95
  Z"
/>
<path fill="#d77029" d="
  M 50.90 2.95
  L 51.31 3.96
  Q 51.49 4.41 51.97 4.47
  L 117.99 13.10
  A 0.48 0.47 4.2 0 1 118.40 13.57
  L 118.40 62.00
  C 113.15 61.83 107.84 61.65 104.13 63.52
  C 99.73 65.73 96.48 71.21 95.01 75.76
  Q 90.00 91.33 85.31 107.18
  Q 83.92 101.98 79.72 102.45
  C 75.38 102.92 73.06 106.82 70.49 109.95
  A 0.65 0.64 54.7 0 1 69.39 109.76
  Q 65.78 100.10 62.72 90.67
  C 59.70 81.36 52.72 71.42 41.65 79.53
  A 1.00 1.00 0.0 0 1 40.08 78.92
  Q 38.83 72.60 34.84 69.23
  A 1.17 1.16 19.5 0 1 34.44 68.40
  Q 34.42 67.36 34.86 66.37
  A 0.37 0.37 0.0 0 0 34.60 65.85
  Q 34.42 65.80 34.19 65.79
  Q 40.87 41.22 47.67 16.74
  Q 49.49 10.19 50.90 2.95
  Z"
/>
<path fill="#ffffff" d="
  M 34.19 65.79
  Q 34.42 65.80 34.60 65.85
  A 0.37 0.37 0.0 0 1 34.86 66.37
  Q 34.42 67.36 34.44 68.40
  A 1.17 1.16 19.5 0 0 34.84 69.23
  Q 38.83 72.60 40.08 78.92
  A 1.00 1.00 0.0 0 0 41.65 79.53
  C 52.72 71.42 59.70 81.36 62.72 90.67
  Q 65.78 100.10 69.39 109.76
  A 0.65 0.64 54.7 0 0 70.49 109.95
  C 73.06 106.82 75.38 102.92 79.72 102.45
  Q 83.92 101.98 85.31 107.18
  L 79.20 126.89
  Q 77.22 128.17 75.23 129.50
  Q 72.60 131.26 70.99 131.45
  C 65.14 132.14 61.50 123.13 60.29 118.63
  Q 58.20 110.90 55.37 104.42
  C 53.59 100.32 49.38 96.74 44.71 98.41
  Q 42.01 99.37 38.96 100.67
  Q 37.27 101.39 35.89 100.37
  C 32.16 97.61 30.61 95.12 29.19 90.86
  Q 28.57 89.00 27.63 87.19
  L 34.19 65.79
  Z"
/>
<path fill="#f9e0c2" d="
  M 27.63 87.19
  Q 28.57 89.00 29.19 90.86
  C 30.61 95.12 32.16 97.61 35.89 100.37
  Q 37.27 101.39 38.96 100.67
  Q 42.01 99.37 44.71 98.41
  C 49.38 96.74 53.59 100.32 55.37 104.42
  Q 58.20 110.90 60.29 118.63
  C 61.50 123.13 65.14 132.14 70.99 131.45
  Q 72.60 131.26 75.23 129.50
  Q 77.22 128.17 79.20 126.89
  L 75.35 138.92
  C 72.87 139.68 70.11 140.97 67.78 140.87
  C 61.59 140.60 58.51 133.04 57.18 127.60
  Q 55.47 120.66 53.90 114.15
  C 52.97 110.30 50.54 105.18 45.51 107.00
  Q 43.16 107.86 40.83 109.08
  C 31.28 114.12 27.19 101.90 26.06 95.20
  Q 26.03 91.37 27.63 87.19
  Z"
/>
<path fill="#a62304" d="
  M 26.06 95.20
  C 27.19 101.90 31.28 114.12 40.83 109.08
  Q 43.16 107.86 45.51 107.00
  C 50.54 105.18 52.97 110.30 53.90 114.15
  Q 55.47 120.66 57.18 127.60
  C 58.51 133.04 61.59 140.60 67.78 140.87
  C 70.11 140.97 72.87 139.68 75.35 138.92
  L 71.34 152.38
  Q 72.00 150.14 67.53 149.45
  C 60.35 146.10 57.22 137.83 55.57 130.90
  Q 54.29 125.52 52.60 118.54
  C 50.74 110.88 45.34 114.09 40.98 116.70
  C 37.58 118.73 33.33 117.03 30.98 114.40
  Q 26.91 109.87 25.76 101.93
  C 25.62 100.92 24.94 99.90 24.31 99.14
  Q 24.09 97.91 24.80 96.74
  Q 25.05 96.32 25.52 96.18
  Q 26.24 95.97 26.06 95.20
  Z"
/>
<path fill="#d77029" d="
  M 24.31 99.14
  C 24.94 99.90 25.62 100.92 25.76 101.93
  Q 26.91 109.87 30.98 114.40
  C 33.33 117.03 37.58 118.73 40.98 116.70
  C 45.34 114.09 50.74 110.88 52.60 118.54
  Q 54.29 125.52 55.57 130.90
  C 57.22 137.83 60.35 146.10 67.53 149.45
  Q 63.55 161.55 54.53 170.16
  C 51.29 173.25 47.84 175.36 43.35 174.95
  Q 37.39 174.41 31.75 169.77
  Q 30.18 168.48 29.46 166.74
  Q 27.66 162.41 24.78 158.16
  Q 24.69 158.03 24.55 157.96
  Q 24.26 157.82 23.97 157.69
  Q 23.56 157.51 23.29 157.15
  Q 22.29 155.84 20.67 155.19
  Q 19.80 154.84 19.17 153.99
  Q 18.24 152.73 17.78 150.97
  Q 15.19 136.97 17.67 124.25
  Q 19.66 114.08 24.31 99.14
  Z
  M 30.57 147.33
  Q 28.65 149.70 31.54 153.95
  C 35.31 159.51 40.78 160.23 44.85 154.82
  Q 49.30 148.91 46.94 142.31
  Q 47.79 137.07 46.27 131.46
  Q 45.11 126.55 41.07 123.66
  C 37.92 121.41 34.74 122.52 32.60 125.25
  Q 29.74 128.91 28.96 132.86
  Q 27.39 140.85 30.57 147.33
  Z"
/>
<path fill="#ffffff" d="
  M 46.27 131.46
  Q 44.94 141.96 38.57 148.33
  A 1.20 1.19 -70.3 0 1 37.82 148.69
  L 31.81 149.29
  L 30.57 147.33
  Q 27.39 140.85 28.96 132.86
  Q 29.74 128.91 32.60 125.25
  C 34.74 122.52 37.92 121.41 41.07 123.66
  Q 45.11 126.55 46.27 131.46
  Z"
/>
<path fill="#f9e0c2" d="
  M 46.27 131.46
  Q 47.79 137.07 46.94 142.31
  Q 45.09 148.30 43.73 149.98
  C 40.29 154.24 34.36 154.67 31.81 149.29
  L 37.82 148.69
  A 1.20 1.19 -70.3 0 0 38.57 148.33
  Q 44.94 141.96 46.27 131.46
  Z"
/>
<path fill="#a62304" d="
  M 46.94 142.31
  Q 49.30 148.91 44.85 154.82
  C 40.78 160.23 35.31 159.51 31.54 153.95
  Q 28.65 149.70 30.57 147.33
  L 31.81 149.29
  C 34.36 154.67 40.29 154.24 43.73 149.98
  Q 45.09 148.30 46.94 142.31
  Z"
/>
<path fill="#ca4b15" d="
  M 67.53 149.45
  Q 72.00 150.14 71.34 152.38
  C 68.53 162.29 65.54 172.11 57.76 179.23
  C 51.69 184.78 42.76 185.24 35.57 181.69
  C 25.25 176.61 19.19 161.84 17.78 150.97
  Q 18.24 152.73 19.17 153.99
  Q 19.80 154.84 20.67 155.19
  Q 22.29 155.84 23.29 157.15
  Q 23.56 157.51 23.97 157.69
  Q 24.26 157.82 24.55 157.96
  Q 24.69 158.03 24.78 158.16
  Q 27.66 162.41 29.46 166.74
  Q 30.18 168.48 31.75 169.77
  Q 37.39 174.41 43.35 174.95
  C 47.84 175.36 51.29 173.25 54.53 170.16
  Q 63.55 161.55 67.53 149.45
  Z"
/>
</svg>
