<?xml version="1.0" encoding="UTF-8" standalone="no"?>
<!DOCTYPE svg PUBLIC "-//W3C//DTD SVG 1.1//EN" "http://www.w3.org/Graphics/SVG/1.1/DTD/svg11.dtd">
<svg xmlns="http://www.w3.org/2000/svg" version="1.1" viewBox="0.00 0.00 116.00 190.00">
<g stroke-width="2.00" fill="none" stroke-linecap="butt">
<path stroke="#7e3815" vector-effect="non-scaling-stroke" d="
  M 114.27 47.25
  L 53.93 73.61"
/>
<path stroke="#928080" vector-effect="non-scaling-stroke" d="
  M 53.93 73.61
  L 41.13 79.47"
/>
<path stroke="#7e3815" vector-effect="non-scaling-stroke" d="
  M 41.13 79.47
  Q 26.11 84.20 20.81 98.57
  Q 13.73 117.75 19.02 139.23
  C 21.48 149.24 28.36 161.82 40.23 161.92
  C 43.00 161.94 46.16 160.87 49.10 160.14"
/>
<path stroke="#6a1703" vector-effect="non-scaling-stroke" d="
  M 49.10 160.14
  Q 50.51 160.06 52.11 159.17"
/>
<path stroke="#90705f" vector-effect="non-scaling-stroke" d="
  M 52.11 159.17
  L 58.57 156.46"
/>
<path stroke="#928080" vector-effect="non-scaling-stroke" d="
  M 58.57 156.46
  Q 62.27 155.42 62.79 154.00"
/>
<path stroke="#7e3815" vector-effect="non-scaling-stroke" d="
  M 62.79 154.00
  Q 76.06 148.90 88.69 143.63
  C 92.94 141.86 95.79 141.07 99.42 143.85
  C 103.43 146.91 105.47 152.52 106.45 157.57
  Q 106.49 157.79 106.72 157.75
  Q 106.95 157.70 106.87 157.53"
/>
<path stroke="#d68762" vector-effect="non-scaling-stroke" d="
  M 52.11 159.17
  Q 51.89 156.76 50.95 155.53
  C 45.06 147.85 38.02 142.03 34.96 132.48"
/>
<path stroke="#fdf0df" vector-effect="non-scaling-stroke" d="
  M 57.76 80.71
  Q 57.25 88.86 54.64 95.13
  Q 52.92 99.27 48.46 108.23
  Q 45.43 114.30 49.60 116.92"
/>
<path stroke="#d89783" vector-effect="non-scaling-stroke" d="
  M 49.60 116.92
  Q 49.46 120.34 51.99 123.56"
/>
<path stroke="#fdf0df" vector-effect="non-scaling-stroke" d="
  M 58.57 156.46
  Q 55.08 151.59 51.22 146.83
  Q 51.19 146.80 45.16 140.23
  Q 35.77 130.00 34.71 115.52
  Q 34.41 111.38 34.11 107.18"
/>
<path stroke="#ebb894" vector-effect="non-scaling-stroke" d="
  M 34.11 107.18
  C 34.98 100.55 37.21 96.07 40.85 90.03
  Q 43.65 85.36 41.13 79.47"
/>
<path stroke="#ebb894" vector-effect="non-scaling-stroke" d="
  M 62.79 154.00
  C 64.26 145.53 64.09 138.06 58.55 131.45
  Q 54.99 127.20 51.99 123.56"
/>
<path stroke="#c44f18" vector-effect="non-scaling-stroke" d="
  M 51.99 123.56
  Q 52.47 119.34 52.83 118.27
  Q 54.41 113.57 57.50 106.50
  Q 59.76 101.32 60.10 93.36
  Q 60.11 93.06 59.86 92.93
  Q 59.49 92.75 58.84 93.24"
/>
<path stroke="#e9a874" vector-effect="non-scaling-stroke" d="
  M 58.84 93.24
  C 59.33 88.79 59.70 84.67 57.76 80.71"
/>
<path stroke="#ebb894" vector-effect="non-scaling-stroke" d="
  M 57.76 80.71
  L 53.93 73.61"
/>
<path stroke="#e9a874" vector-effect="non-scaling-stroke" d="
  M 34.11 107.18
  Q 32.88 114.01 33.12 122.00
  Q 33.29 127.65 34.96 132.48"
/>
<path stroke="#c44f18" vector-effect="non-scaling-stroke" d="
  M 34.96 132.48
  Q 34.35 132.22 33.89 132.59
  Q 33.50 132.91 33.58 133.42
  Q 35.88 146.47 46.19 155.30
  Q 48.45 157.24 49.10 160.14"
/>
<path stroke="#d68762" vector-effect="non-scaling-stroke" d="
  M 58.84 93.24
  Q 57.64 99.52 55.95 102.48
  C 53.28 107.15 50.44 111.18 49.60 116.92"
/>
<path stroke="#c44f18" vector-effect="non-scaling-stroke" d="
  M 71.82 113.18
  Q 71.22 112.82 71.11 112.92
  A 1.21 1.12 69.4 0 0 70.71 113.90
  C 71.05 118.10 74.07 124.51 78.90 124.86
  Q 84.04 125.22 86.78 120.56
  Q 90.67 113.97 88.65 106.73"
/>
<path stroke="#e9a874" vector-effect="non-scaling-stroke" d="
  M 88.65 106.73
  L 87.15 98.13"
/>
<path stroke="#ebb894" vector-effect="non-scaling-stroke" d="
  M 87.15 98.13
  Q 86.19 94.27 83.57 91.91
  Q 78.62 87.46 74.02 92.79
  C 69.36 98.18 69.33 106.91 71.82 113.18"
/>
<path stroke="#fdf0df" vector-effect="non-scaling-stroke" d="
  M 87.15 98.13
  Q 86.84 108.28 81.31 114.31
  Q 80.35 115.36 78.48 116.43
  Q 76.96 117.30 75.46 118.31"
/>
<path stroke="#d89783" vector-effect="non-scaling-stroke" d="
  M 75.46 118.31
  Q 73.10 116.14 71.82 113.18"
/>
<path stroke="#d68762" vector-effect="non-scaling-stroke" d="
  M 88.65 106.73
  Q 87.28 113.53 84.93 116.65
  C 82.60 119.72 78.48 121.53 75.46 118.31"
/>
</g>
<path fill="#240000" d="
  M 114.27 47.25
  L 53.93 73.61
  L 41.13 79.47
  Q 26.11 84.20 20.81 98.57
  Q 13.73 117.75 19.02 139.23
  C 21.48 149.24 28.36 161.82 40.23 161.92
  C 43.00 161.94 46.16 160.87 49.10 160.14
  Q 50.51 160.06 52.11 159.17
  L 58.57 156.46
  Q 62.27 155.42 62.79 154.00
  Q 76.06 148.90 88.69 143.63
  C 92.94 141.86 95.79 141.07 99.42 143.85
  C 103.43 146.91 105.47 152.52 106.45 157.57
  Q 106.49 157.79 106.72 157.75
  Q 106.95 157.70 106.87 157.53
  Q 106.97 157.72 106.99 157.96
  Q 107.02 158.31 106.74 158.53
  L 87.62 173.36
  Q 87.19 173.69 86.67 173.51
  Q 84.42 172.74 82.24 173.75
  Q 63.81 182.24 50.86 187.27
  C 35.91 193.07 21.19 184.15 13.36 171.12
  C 0.24 149.27 -2.16 122.69 3.17 97.85
  Q 6.55 82.11 15.51 69.09
  Q 21.67 60.14 31.64 55.66
  Q 44.12 50.05 59.74 43.47
  Q 82.59 33.84 106.51 23.53
  C 108.34 22.74 110.57 22.12 112.06 23.95
  Q 114.50 26.94 115.01 30.21
  Q 115.52 33.50 115.72 36.79
  Q 116.05 42.02 114.27 47.25
  Z"
/>
<path fill="#d77029" d="
  M 114.27 47.25
  L 106.87 157.53
  Q 106.95 157.70 106.72 157.75
  Q 106.49 157.79 106.45 157.57
  C 105.47 152.52 103.43 146.91 99.42 143.85
  C 95.79 141.07 92.94 141.86 88.69 143.63
  Q 76.06 148.90 62.79 154.00
  C 64.26 145.53 64.09 138.06 58.55 131.45
  Q 54.99 127.20 51.99 123.56
  Q 52.47 119.34 52.83 118.27
  Q 54.41 113.57 57.50 106.50
  Q 59.76 101.32 60.10 93.36
  Q 60.11 93.06 59.86 92.93
  Q 59.49 92.75 58.84 93.24
  C 59.33 88.79 59.70 84.67 57.76 80.71
  L 53.93 73.61
  L 114.27 47.25
  Z
  M 71.82 113.18
  Q 71.22 112.82 71.11 112.92
  A 1.21 1.12 69.4 0 0 70.71 113.90
  C 71.05 118.10 74.07 124.51 78.90 124.86
  Q 84.04 125.22 86.78 120.56
  Q 90.67 113.97 88.65 106.73
  L 87.15 98.13
  Q 86.19 94.27 83.57 91.91
  Q 78.62 87.46 74.02 92.79
  C 69.36 98.18 69.33 106.91 71.82 113.18
  Z"
/>
<path fill="#ffffff" d="
  M 53.93 73.61
  L 57.76 80.71
  Q 57.25 88.86 54.64 95.13
  Q 52.92 99.27 48.46 108.23
  Q 45.43 114.30 49.60 116.92
  Q 49.46 120.34 51.99 123.56
  Q 54.99 127.20 58.55 131.45
  C 64.09 138.06 64.26 145.53 62.79 154.00
  Q 62.27 155.42 58.57 156.46
  Q 55.08 151.59 51.22 146.83
  Q 51.19 146.80 45.16 140.23
  Q 35.77 130.00 34.71 115.52
  Q 34.41 111.38 34.11 107.18
  C 34.98 100.55 37.21 96.07 40.85 90.03
  Q 43.65 85.36 41.13 79.47
  L 53.93 73.61
  Z"
/>
<path fill="#d77029" d="
  M 41.13 79.47
  Q 43.65 85.36 40.85 90.03
  C 37.21 96.07 34.98 100.55 34.11 107.18
  Q 32.88 114.01 33.12 122.00
  Q 33.29 127.65 34.96 132.48
  Q 34.35 132.22 33.89 132.59
  Q 33.50 132.91 33.58 133.42
  Q 35.88 146.47 46.19 155.30
  Q 48.45 157.24 49.10 160.14
  C 46.16 160.87 43.00 161.94 40.23 161.92
  C 28.36 161.82 21.48 149.24 19.02 139.23
  Q 13.73 117.75 20.81 98.57
  Q 26.11 84.20 41.13 79.47
  Z"
/>
<path fill="#fbe0be" d="
  M 57.76 80.71
  C 59.70 84.67 59.33 88.79 58.84 93.24
  Q 57.64 99.52 55.95 102.48
  C 53.28 107.15 50.44 111.18 49.60 116.92
  Q 45.43 114.30 48.46 108.23
  Q 52.92 99.27 54.64 95.13
  Q 57.25 88.86 57.76 80.71
  Z"
/>
<path fill="#ffffff" d="
  M 87.15 98.13
  Q 86.84 108.28 81.31 114.31
  Q 80.35 115.36 78.48 116.43
  Q 76.96 117.30 75.46 118.31
  Q 73.10 116.14 71.82 113.18
  C 69.33 106.91 69.36 98.18 74.02 92.79
  Q 78.62 87.46 83.57 91.91
  Q 86.19 94.27 87.15 98.13
  Z"
/>
<path fill="#b02e06" d="
  M 51.99 123.56
  Q 49.46 120.34 49.60 116.92
  C 50.44 111.18 53.28 107.15 55.95 102.48
  Q 57.64 99.52 58.84 93.24
  Q 59.49 92.75 59.86 92.93
  Q 60.11 93.06 60.10 93.36
  Q 59.76 101.32 57.50 106.50
  Q 54.41 113.57 52.83 118.27
  Q 52.47 119.34 51.99 123.56
  Z"
/>
<path fill="#fbe0be" d="
  M 87.15 98.13
  L 88.65 106.73
  Q 87.28 113.53 84.93 116.65
  C 82.60 119.72 78.48 121.53 75.46 118.31
  Q 76.96 117.30 78.48 116.43
  Q 80.35 115.36 81.31 114.31
  Q 86.84 108.28 87.15 98.13
  Z"
/>
<path fill="#b02e06" d="
  M 88.65 106.73
  Q 90.67 113.97 86.78 120.56
  Q 84.04 125.22 78.90 124.86
  C 74.07 124.51 71.05 118.10 70.71 113.90
  A 1.21 1.12 69.4 0 1 71.11 112.92
  Q 71.22 112.82 71.82 113.18
  Q 73.10 116.14 75.46 118.31
  C 78.48 121.53 82.60 119.72 84.93 116.65
  Q 87.28 113.53 88.65 106.73
  Z"
/>
<path fill="#fbe0be" d="
  M 34.11 107.18
  Q 34.41 111.38 34.71 115.52
  Q 35.77 130.00 45.16 140.23
  Q 51.19 146.80 51.22 146.83
  Q 55.08 151.59 58.57 156.46
  L 52.11 159.17
  Q 51.89 156.76 50.95 155.53
  C 45.06 147.85 38.02 142.03 34.96 132.48
  Q 33.29 127.65 33.12 122.00
  Q 32.88 114.01 34.11 107.18
  Z"
/>
<path fill="#b02e06" d="
  M 34.96 132.48
  C 38.02 142.03 45.06 147.85 50.95 155.53
  Q 51.89 156.76 52.11 159.17
  Q 50.51 160.06 49.10 160.14
  Q 48.45 157.24 46.19 155.30
  Q 35.88 146.47 33.58 133.42
  Q 33.50 132.91 33.89 132.59
  Q 34.35 132.22 34.96 132.48
  Z"
/>
</svg>
