<?xml version="1.0" encoding="UTF-8" standalone="no"?>
<!DOCTYPE svg PUBLIC "-//W3C//DTD SVG 1.1//EN" "http://www.w3.org/Graphics/SVG/1.1/DTD/svg11.dtd">
<svg xmlns="http://www.w3.org/2000/svg" version="1.1" viewBox="0.00 0.00 116.00 176.00">
<g stroke-width="2.00" fill="none" stroke-linecap="butt">
<path stroke="#7e3916" vector-effect="non-scaling-stroke" d="
  M 8.99 143.60
  Q 10.09 137.75 13.04 133.01
  C 14.53 130.63 18.59 126.86 21.71 128.03
  Q 30.18 131.22 39.81 135.30
  Q 46.17 137.99 53.01 140.05"
/>
<path stroke="#928080" vector-effect="non-scaling-stroke" d="
  M 53.01 140.05
  Q 53.82 141.65 56.99 142.48"
/>
<path stroke="#8e7162" vector-effect="non-scaling-stroke" d="
  M 56.99 142.48
  L 63.10 144.75"
/>
<path stroke="#681302" vector-effect="non-scaling-stroke" d="
  M 63.10 144.75
  Q 66.13 146.64 68.82 146.93"
/>
<path stroke="#77280c" vector-effect="non-scaling-stroke" d="
  M 68.82 146.93
  C 74.23 148.20 79.04 148.57 83.22 146.12
  C 88.87 142.80 92.77 136.86 95.17 130.30
  Q 100.86 114.69 98.33 97.74"
/>
<path stroke="#7e3916" vector-effect="non-scaling-stroke" d="
  M 98.33 97.74
  Q 96.95 85.99 91.42 77.33
  Q 85.69 68.38 74.21 65.05"
/>
<path stroke="#928080" vector-effect="non-scaling-stroke" d="
  M 74.21 65.05
  Q 68.49 61.72 61.89 59.93"
/>
<path stroke="#7e3916" vector-effect="non-scaling-stroke" d="
  M 61.89 59.93
  Q 54.70 55.99 43.06 51.43
  Q 33.42 47.65 5.76 35.17
  Q 3.24 34.03 0.97 32.43"
/>
<path stroke="#ecb895" vector-effect="non-scaling-stroke" d="
  M 74.21 65.05
  Q 71.80 71.44 75.33 77.18
  Q 80.45 85.50 81.89 94.86"
/>
<path stroke="#fcf0e2" vector-effect="non-scaling-stroke" d="
  M 81.89 94.86
  Q 80.76 104.11 78.94 110.76
  Q 77.30 116.75 73.62 122.28
  C 70.71 126.67 66.02 131.11 62.06 135.30
  Q 60.77 136.65 56.99 142.48"
/>
<path stroke="#fcf0e2" vector-effect="non-scaling-stroke" d="
  M 65.51 107.07
  Q 67.67 104.02 67.81 101.25
  Q 67.99 97.61 66.57 93.20
  Q 66.11 91.77 62.60 85.54
  Q 59.07 79.28 58.48 74.26
  Q 58.01 70.16 57.59 68.75"
/>
<path stroke="#d16121" vector-effect="non-scaling-stroke" d="
  M 98.33 97.74
  Q 98.14 99.53 97.90 101.25
  Q 97.66 103.04 96.89 104.60
  C 96.16 106.08 96.04 107.98 95.49 109.62
  Q 94.01 113.97 92.55 118.69
  Q 89.03 130.07 80.94 137.50
  Q 77.89 140.29 73.01 144.02
  Q 72.24 144.60 72.03 145.50
  Q 71.91 146.00 71.42 146.15
  Q 69.78 146.64 68.55 145.96"
/>
<path stroke="#c24b17" vector-effect="non-scaling-stroke" d="
  M 68.55 145.96
  Q 68.26 145.71 68.24 145.26
  Q 68.22 144.73 68.59 144.36
  Q 74.25 138.46 77.93 133.22
  Q 83.88 124.72 83.27 111.77
  A 0.37 0.37 0.0 0 0 82.63 111.54
  L 82.22 111.96"
/>
<path stroke="#e8a978" vector-effect="non-scaling-stroke" d="
  M 82.22 111.96
  Q 83.15 103.27 81.89 94.86"
/>
<path stroke="#ecb895" vector-effect="non-scaling-stroke" d="
  M 61.89 59.93
  Q 58.66 63.54 57.59 68.75"
/>
<path stroke="#e8a978" vector-effect="non-scaling-stroke" d="
  M 57.59 68.75
  Q 56.06 73.54 56.80 78.75
  Q 57.27 82.08 58.06 85.50"
/>
<path stroke="#c24b17" vector-effect="non-scaling-stroke" d="
  M 58.06 85.50
  L 57.81 85.16
  Q 57.48 84.71 57.21 85.20
  Q 56.92 85.70 57.10 86.26
  Q 59.79 94.55 63.77 102.92
  C 64.15 103.71 64.54 105.20 64.56 106.11
  Q 64.56 106.62 65.06 106.49
  Q 65.30 106.42 65.51 106.44"
/>
<path stroke="#e8a978" vector-effect="non-scaling-stroke" d="
  M 65.51 106.44
  L 65.51 107.07"
/>
<path stroke="#ecb895" vector-effect="non-scaling-stroke" d="
  M 65.51 107.07
  C 62.67 112.26 57.45 116.06 54.66 121.39
  C 51.75 126.93 51.69 133.61 53.01 140.05"
/>
<path stroke="#d28364" vector-effect="non-scaling-stroke" d="
  M 82.22 111.96
  Q 80.83 122.41 74.95 129.18
  Q 66.79 138.57 63.10 144.75"
/>
<path stroke="#bb3b0d" vector-effect="non-scaling-stroke" d="
  M 68.82 146.93
  Q 68.47 146.27 68.55 145.96"
/>
<path stroke="#d28364" vector-effect="non-scaling-stroke" d="
  M 65.51 106.44
  Q 66.53 101.80 64.43 98.06
  Q 60.11 90.37 58.06 85.50"
/>
<path stroke="#c24b17" vector-effect="non-scaling-stroke" d="
  M 28.42 99.12
  Q 28.01 103.22 30.42 106.82
  C 34.73 113.30 42.21 111.86 45.00 105.26
  Q 47.49 99.36 45.76 93.26"
/>
<path stroke="#e8a978" vector-effect="non-scaling-stroke" d="
  M 45.76 93.26
  L 45.38 87.54"
/>
<path stroke="#ecb895" vector-effect="non-scaling-stroke" d="
  M 45.38 87.54
  Q 44.62 82.65 41.78 79.10
  C 36.38 72.36 30.01 78.22 28.31 84.01
  Q 26.14 91.34 28.42 99.12"
/>
<path stroke="#fcf0e2" vector-effect="non-scaling-stroke" d="
  M 45.38 87.54
  Q 45.33 88.05 44.66 87.76
  A 0.86 0.85 -70.1 0 0 43.49 88.31
  Q 42.35 92.26 41.13 96.24
  Q 40.14 99.46 37.42 101.46
  Q 37.01 101.77 36.50 101.71
  L 29.46 100.88"
/>
<path stroke="#d59281" vector-effect="non-scaling-stroke" d="
  M 29.46 100.88
  L 28.42 99.12"
/>
<path stroke="#d28364" vector-effect="non-scaling-stroke" d="
  M 45.76 93.26
  Q 45.09 95.04 44.47 97.75
  Q 43.31 102.83 38.60 105.48
  C 34.85 107.59 31.14 104.05 29.46 100.88"
/>
</g>
<path fill="#240000" d="
  M 8.99 143.60
  Q 10.09 137.75 13.04 133.01
  C 14.53 130.63 18.59 126.86 21.71 128.03
  Q 30.18 131.22 39.81 135.30
  Q 46.17 137.99 53.01 140.05
  Q 53.82 141.65 56.99 142.48
  L 63.10 144.75
  Q 66.13 146.64 68.82 146.93
  C 74.23 148.20 79.04 148.57 83.22 146.12
  C 88.87 142.80 92.77 136.86 95.17 130.30
  Q 100.86 114.69 98.33 97.74
  Q 96.95 85.99 91.42 77.33
  Q 85.69 68.38 74.21 65.05
  Q 68.49 61.72 61.89 59.93
  Q 54.70 55.99 43.06 51.43
  Q 33.42 47.65 5.76 35.17
  Q 3.24 34.03 0.97 32.43
  Q 0.31 18.91 0.87 14.12
  Q 1.03 12.75 3.40 9.35
  Q 3.69 8.94 4.19 8.86
  Q 7.10 8.42 8.64 9.09
  Q 44.45 24.68 80.52 39.68
  Q 82.42 40.47 87.03 43.02
  C 103.34 52.06 111.32 72.89 114.06 90.72
  Q 118.78 121.39 107.12 148.24
  C 102.30 159.34 93.87 170.73 81.65 174.18
  Q 72.78 176.69 62.42 172.31
  Q 49.18 166.71 36.04 160.89
  C 33.18 159.63 29.20 158.10 27.15 161.38
  A 0.90 0.89 38.3 0 1 25.76 161.54
  Q 17.73 153.61 9.51 145.46
  Q 8.47 144.43 8.99 143.60
  Z"
/>
<path fill="#d8712b" d="
  M 61.89 59.93
  Q 58.66 63.54 57.59 68.75
  Q 56.06 73.54 56.80 78.75
  Q 57.27 82.08 58.06 85.50
  L 57.81 85.16
  Q 57.48 84.71 57.21 85.20
  Q 56.92 85.70 57.10 86.26
  Q 59.79 94.55 63.77 102.92
  C 64.15 103.71 64.54 105.20 64.56 106.11
  Q 64.56 106.62 65.06 106.49
  Q 65.30 106.42 65.51 106.44
  L 65.51 107.07
  C 62.67 112.26 57.45 116.06 54.66 121.39
  C 51.75 126.93 51.69 133.61 53.01 140.05
  Q 46.17 137.99 39.81 135.30
  Q 30.18 131.22 21.71 128.03
  C 18.59 126.86 14.53 130.63 13.04 133.01
  Q 10.09 137.75 8.99 143.60
  L 0.97 32.43
  Q 3.24 34.03 5.76 35.17
  Q 33.42 47.65 43.06 51.43
  Q 54.70 55.99 61.89 59.93
  Z
  M 28.42 99.12
  Q 28.01 103.22 30.42 106.82
  C 34.73 113.30 42.21 111.86 45.00 105.26
  Q 47.49 99.36 45.76 93.26
  L 45.38 87.54
  Q 44.62 82.65 41.78 79.10
  C 36.38 72.36 30.01 78.22 28.31 84.01
  Q 26.14 91.34 28.42 99.12
  Z"
/>
<path fill="#ffffff" d="
  M 61.89 59.93
  Q 68.49 61.72 74.21 65.05
  Q 71.80 71.44 75.33 77.18
  Q 80.45 85.50 81.89 94.86
  Q 80.76 104.11 78.94 110.76
  Q 77.30 116.75 73.62 122.28
  C 70.71 126.67 66.02 131.11 62.06 135.30
  Q 60.77 136.65 56.99 142.48
  Q 53.82 141.65 53.01 140.05
  C 51.69 133.61 51.75 126.93 54.66 121.39
  C 57.45 116.06 62.67 112.26 65.51 107.07
  Q 67.67 104.02 67.81 101.25
  Q 67.99 97.61 66.57 93.20
  Q 66.11 91.77 62.60 85.54
  Q 59.07 79.28 58.48 74.26
  Q 58.01 70.16 57.59 68.75
  Q 58.66 63.54 61.89 59.93
  Z"
/>
<path fill="#d8712b" d="
  M 74.21 65.05
  Q 85.69 68.38 91.42 77.33
  Q 96.95 85.99 98.33 97.74
  Q 98.14 99.53 97.90 101.25
  Q 97.66 103.04 96.89 104.60
  C 96.16 106.08 96.04 107.98 95.49 109.62
  Q 94.01 113.97 92.55 118.69
  Q 89.03 130.07 80.94 137.50
  Q 77.89 140.29 73.01 144.02
  Q 72.24 144.60 72.03 145.50
  Q 71.91 146.00 71.42 146.15
  Q 69.78 146.64 68.55 145.96
  Q 68.26 145.71 68.24 145.26
  Q 68.22 144.73 68.59 144.36
  Q 74.25 138.46 77.93 133.22
  Q 83.88 124.72 83.27 111.77
  A 0.37 0.37 0.0 0 0 82.63 111.54
  L 82.22 111.96
  Q 83.15 103.27 81.89 94.86
  Q 80.45 85.50 75.33 77.18
  Q 71.80 71.44 74.21 65.05
  Z"
/>
<path fill="#f8e1c4" d="
  M 57.59 68.75
  Q 58.01 70.16 58.48 74.26
  Q 59.07 79.28 62.60 85.54
  Q 66.11 91.77 66.57 93.20
  Q 67.99 97.61 67.81 101.25
  Q 67.67 104.02 65.51 107.07
  L 65.51 106.44
  Q 66.53 101.80 64.43 98.06
  Q 60.11 90.37 58.06 85.50
  Q 57.27 82.08 56.80 78.75
  Q 56.06 73.54 57.59 68.75
  Z"
/>
<path fill="#ffffff" d="
  M 45.38 87.54
  Q 45.33 88.05 44.66 87.76
  A 0.86 0.85 -70.1 0 0 43.49 88.31
  Q 42.35 92.26 41.13 96.24
  Q 40.14 99.46 37.42 101.46
  Q 37.01 101.77 36.50 101.71
  L 29.46 100.88
  L 28.42 99.12
  Q 26.14 91.34 28.31 84.01
  C 30.01 78.22 36.38 72.36 41.78 79.10
  Q 44.62 82.65 45.38 87.54
  Z"
/>
<path fill="#ab2503" d="
  M 58.06 85.50
  Q 60.11 90.37 64.43 98.06
  Q 66.53 101.80 65.51 106.44
  Q 65.30 106.42 65.06 106.49
  Q 64.56 106.62 64.56 106.11
  C 64.54 105.20 64.15 103.71 63.77 102.92
  Q 59.79 94.55 57.10 86.26
  Q 56.92 85.70 57.21 85.20
  Q 57.48 84.71 57.81 85.16
  L 58.06 85.50
  Z"
/>
<path fill="#f8e1c4" d="
  M 45.38 87.54
  L 45.76 93.26
  Q 45.09 95.04 44.47 97.75
  Q 43.31 102.83 38.60 105.48
  C 34.85 107.59 31.14 104.05 29.46 100.88
  L 36.50 101.71
  Q 37.01 101.77 37.42 101.46
  Q 40.14 99.46 41.13 96.24
  Q 42.35 92.26 43.49 88.31
  A 0.86 0.85 -70.1 0 1 44.66 87.76
  Q 45.33 88.05 45.38 87.54
  Z"
/>
<path fill="#ab2503" d="
  M 45.76 93.26
  Q 47.49 99.36 45.00 105.26
  C 42.21 111.86 34.73 113.30 30.42 106.82
  Q 28.01 103.22 28.42 99.12
  L 29.46 100.88
  C 31.14 104.05 34.85 107.59 38.60 105.48
  Q 43.31 102.83 44.47 97.75
  Q 45.09 95.04 45.76 93.26
  Z"
/>
<path fill="#f8e1c4" d="
  M 81.89 94.86
  Q 83.15 103.27 82.22 111.96
  Q 80.83 122.41 74.95 129.18
  Q 66.79 138.57 63.10 144.75
  L 56.99 142.48
  Q 60.77 136.65 62.06 135.30
  C 66.02 131.11 70.71 126.67 73.62 122.28
  Q 77.30 116.75 78.94 110.76
  Q 80.76 104.11 81.89 94.86
  Z"
/>
<path fill="#ca5017" d="
  M 98.33 97.74
  Q 100.86 114.69 95.17 130.30
  C 92.77 136.86 88.87 142.80 83.22 146.12
  C 79.04 148.57 74.23 148.20 68.82 146.93
  Q 68.47 146.27 68.55 145.96
  Q 69.78 146.64 71.42 146.15
  Q 71.91 146.00 72.03 145.50
  Q 72.24 144.60 73.01 144.02
  Q 77.89 140.29 80.94 137.50
  Q 89.03 130.07 92.55 118.69
  Q 94.01 113.97 95.49 109.62
  C 96.04 107.98 96.16 106.08 96.89 104.60
  Q 97.66 103.04 97.90 101.25
  Q 98.14 99.53 98.33 97.74
  Z"
/>
<path fill="#ab2503" d="
  M 68.55 145.96
  Q 68.47 146.27 68.82 146.93
  Q 66.13 146.64 63.10 144.75
  Q 66.79 138.57 74.95 129.18
  Q 80.83 122.41 82.22 111.96
  L 82.63 111.54
  A 0.37 0.37 0.0 0 1 83.27 111.77
  Q 83.88 124.72 77.93 133.22
  Q 74.25 138.46 68.59 144.36
  Q 68.22 144.73 68.24 145.26
  Q 68.26 145.71 68.55 145.96
  Z"
/>
</svg>
