<?xml version="1.0" encoding="UTF-8" standalone="no"?>
<!DOCTYPE svg PUBLIC "-//W3C//DTD SVG 1.1//EN" "http://www.w3.org/Graphics/SVG/1.1/DTD/svg11.dtd">
<svg xmlns="http://www.w3.org/2000/svg" version="1.1" viewBox="0.00 0.00 118.00 205.00">
<g stroke-width="2.00" fill="none" stroke-linecap="butt">
<path stroke="#7e3815" vector-effect="non-scaling-stroke" d="
  M 0.46 56.02
  C 7.90 55.95 14.42 54.95 19.27 61.76
  Q 22.70 66.56 23.98 70.74
  Q 28.24 84.64 32.74 98.59"
/>
<path stroke="#928080" vector-effect="non-scaling-stroke" d="
  M 32.74 98.59
  L 40.57 124.37"
/>
<path stroke="#8f7161" vector-effect="non-scaling-stroke" d="
  M 40.57 124.37
  Q 41.77 130.06 44.25 134.33"
/>
<path stroke="#671103" vector-effect="non-scaling-stroke" d="
  M 44.25 134.33
  L 46.69 144.45"
/>
<path stroke="#78240b" vector-effect="non-scaling-stroke" d="
  M 46.69 144.45
  Q 48.57 151.10 50.88 157.54
  C 54.32 167.18 61.21 177.87 72.80 178.04
  Q 79.28 178.14 83.14 175.87
  Q 91.83 170.76 96.08 160.81
  Q 102.58 145.57 101.99 131.25"
/>
<path stroke="#7e3815" vector-effect="non-scaling-stroke" d="
  M 101.99 131.25
  C 101.81 119.54 98.89 107.80 94.72 96.54"
/>
<path stroke="#671103" vector-effect="non-scaling-stroke" d="
  M 94.72 96.54
  L 92.60 89.35"
/>
<path stroke="#8f7161" vector-effect="non-scaling-stroke" d="
  M 92.60 89.35
  L 91.06 83.22"
/>
<path stroke="#928080" vector-effect="non-scaling-stroke" d="
  M 91.06 83.22
  L 85.20 63.23"
/>
<path stroke="#7e3815" vector-effect="non-scaling-stroke" d="
  M 85.20 63.23
  L 68.13 1.25"
/>
<path stroke="#ebb895" vector-effect="non-scaling-stroke" d="
  M 85.20 63.23
  Q 81.82 64.58 80.80 66.81
  Q 79.38 69.94 78.30 72.95
  A 0.75 0.75 0.0 0 1 77.17 73.32
  Q 67.38 66.58 60.87 75.64
  C 54.77 84.13 53.68 94.82 49.21 103.93
  A 0.58 0.58 0.0 0 1 48.23 104.03
  C 44.41 99.01 39.65 92.63 32.74 98.59"
/>
<path stroke="#fcf0e0" vector-effect="non-scaling-stroke" d="
  M 91.06 83.22
  Q 88.74 87.56 86.39 91.21
  Q 85.18 93.08 83.85 93.93
  Q 81.79 95.24 79.31 94.25
  C 74.67 92.40 68.67 90.08 65.15 95.13
  C 61.69 100.10 60.11 106.62 58.52 112.54
  C 57.34 116.91 53.27 125.73 47.84 125.74
  Q 46.84 125.74 45.34 124.87
  Q 42.44 123.19 40.57 124.37"
/>
<path stroke="#d28264" vector-effect="non-scaling-stroke" d="
  M 92.60 89.35
  Q 92.14 97.15 87.74 101.75
  C 80.10 109.70 72.33 95.28 67.06 103.29
  Q 65.77 105.23 65.19 107.38
  Q 63.10 115.11 61.11 122.71
  C 59.02 130.65 53.53 137.21 44.25 134.33"
/>
<path stroke="#c14918" vector-effect="non-scaling-stroke" d="
  M 94.72 96.54
  Q 93.09 103.53 89.59 108.06
  C 86.79 111.68 82.43 112.79 78.35 110.61
  C 75.90 109.30 73.29 108.19 70.58 107.72
  Q 70.01 107.62 69.65 108.08
  Q 68.46 109.55 67.92 111.45
  Q 65.32 120.61 62.79 129.50
  C 60.90 136.11 57.33 141.73 50.44 143.70"
/>
<path stroke="#bb350e" vector-effect="non-scaling-stroke" d="
  M 50.44 143.70
  L 46.69 144.45"
/>
<path stroke="#d15c20" vector-effect="non-scaling-stroke" d="
  M 101.99 131.25
  Q 100.79 132.35 100.24 131.92
  Q 99.89 131.65 99.51 131.87
  C 98.90 132.22 98.37 132.61 98.17 133.32
  C 97.72 134.93 97.73 136.59 97.28 138.18
  Q 95.61 143.99 93.70 150.19
  Q 90.39 160.89 80.70 166.92
  Q 75.40 170.22 68.83 168.14
  C 59.72 165.27 54.94 157.25 52.77 148.19
  C 52.50 147.04 51.62 146.18 50.80 145.41
  Q 50.09 144.74 50.44 143.70"
/>
<path stroke="#c14918" vector-effect="non-scaling-stroke" d="
  M 72.30 140.26
  Q 72.09 146.47 76.62 150.80
  C 78.10 152.23 79.91 152.94 81.98 152.48
  C 89.61 150.79 91.39 141.61 90.89 134.95
  A 0.34 0.34 0.0 0 0 90.39 134.68
  Q 90.15 134.82 89.68 135.52"
/>
<path stroke="#e8a976" vector-effect="non-scaling-stroke" d="
  M 89.68 135.52
  Q 90.22 131.45 89.18 127.16"
/>
<path stroke="#ebb895" vector-effect="non-scaling-stroke" d="
  M 89.18 127.16
  Q 88.49 121.40 83.57 117.45
  C 79.11 113.88 74.14 119.14 72.70 123.00
  Q 69.54 131.46 72.30 140.26"
/>
<path stroke="#fcf0e0" vector-effect="non-scaling-stroke" d="
  M 89.18 127.16
  Q 87.25 128.29 86.77 131.58
  Q 86.21 135.39 85.84 136.32
  C 84.56 139.60 81.70 142.58 77.84 142.86
  Q 76.16 142.98 77.05 144.38
  A 0.59 0.57 -29.1 0 1 76.80 145.20
  Q 76.48 145.36 75.67 145.25"
/>
<path stroke="#d59183" vector-effect="non-scaling-stroke" d="
  M 75.67 145.25
  L 72.30 140.26"
/>
<path stroke="#d28264" vector-effect="non-scaling-stroke" d="
  M 89.68 135.52
  Q 88.87 139.61 87.34 142.52
  C 85.31 146.37 79.13 149.58 75.67 145.25"
/>
</g>
<path fill="#240000" d="
  M 118.00 125.54
  L 118.00 139.09
  Q 117.09 157.14 110.19 173.68
  C 105.15 185.76 95.13 199.85 81.65 203.29
  C 62.79 208.09 48.68 196.06 41.14 180.11
  Q 37.25 171.86 34.63 163.57
  Q 24.16 130.44 12.36 91.50
  C 10.50 85.38 8.88 81.24 1.51 81.77
  Q 0.48 81.85 0.48 80.81
  L 0.46 56.02
  C 7.90 55.95 14.42 54.95 19.27 61.76
  Q 22.70 66.56 23.98 70.74
  Q 28.24 84.64 32.74 98.59
  L 40.57 124.37
  Q 41.77 130.06 44.25 134.33
  L 46.69 144.45
  Q 48.57 151.10 50.88 157.54
  C 54.32 167.18 61.21 177.87 72.80 178.04
  Q 79.28 178.14 83.14 175.87
  Q 91.83 170.76 96.08 160.81
  Q 102.58 145.57 101.99 131.25
  C 101.81 119.54 98.89 107.80 94.72 96.54
  L 92.60 89.35
  L 91.06 83.22
  L 85.20 63.23
  L 68.13 1.25
  L 84.75 0.50
  A 1.15 1.14 -8.4 0 1 85.91 1.36
  Q 87.66 8.19 89.60 14.99
  Q 100.84 54.34 112.10 93.68
  Q 116.97 110.71 118.00 125.54
  Z"
/>
<path fill="#d7702a" d="
  M 68.13 1.25
  L 85.20 63.23
  Q 81.82 64.58 80.80 66.81
  Q 79.38 69.94 78.30 72.95
  A 0.75 0.75 0.0 0 1 77.17 73.32
  Q 67.38 66.58 60.87 75.64
  C 54.77 84.13 53.68 94.82 49.21 103.93
  A 0.58 0.58 0.0 0 1 48.23 104.03
  C 44.41 99.01 39.65 92.63 32.74 98.59
  Q 28.24 84.64 23.98 70.74
  Q 22.70 66.56 19.27 61.76
  C 14.42 54.95 7.90 55.95 0.46 56.02
  L 0.42 8.00
  Q 0.42 7.50 0.92 7.45
  L 68.13 1.25
  Z"
/>
<path fill="#ffffff" d="
  M 85.20 63.23
  L 91.06 83.22
  Q 88.74 87.56 86.39 91.21
  Q 85.18 93.08 83.85 93.93
  Q 81.79 95.24 79.31 94.25
  C 74.67 92.40 68.67 90.08 65.15 95.13
  C 61.69 100.10 60.11 106.62 58.52 112.54
  C 57.34 116.91 53.27 125.73 47.84 125.74
  Q 46.84 125.74 45.34 124.87
  Q 42.44 123.19 40.57 124.37
  L 32.74 98.59
  C 39.65 92.63 44.41 99.01 48.23 104.03
  A 0.58 0.58 0.0 0 0 49.21 103.93
  C 53.68 94.82 54.77 84.13 60.87 75.64
  Q 67.38 66.58 77.17 73.32
  A 0.75 0.75 0.0 0 0 78.30 72.95
  Q 79.38 69.94 80.80 66.81
  Q 81.82 64.58 85.20 63.23
  Z"
/>
<path fill="#f9e1c1" d="
  M 91.06 83.22
  L 92.60 89.35
  Q 92.14 97.15 87.74 101.75
  C 80.10 109.70 72.33 95.28 67.06 103.29
  Q 65.77 105.23 65.19 107.38
  Q 63.10 115.11 61.11 122.71
  C 59.02 130.65 53.53 137.21 44.25 134.33
  Q 41.77 130.06 40.57 124.37
  Q 42.44 123.19 45.34 124.87
  Q 46.84 125.74 47.84 125.74
  C 53.27 125.73 57.34 116.91 58.52 112.54
  C 60.11 106.62 61.69 100.10 65.15 95.13
  C 68.67 90.08 74.67 92.40 79.31 94.25
  Q 81.79 95.24 83.85 93.93
  Q 85.18 93.08 86.39 91.21
  Q 88.74 87.56 91.06 83.22
  Z"
/>
<path fill="#aa2206" d="
  M 92.60 89.35
  L 94.72 96.54
  Q 93.09 103.53 89.59 108.06
  C 86.79 111.68 82.43 112.79 78.35 110.61
  C 75.90 109.30 73.29 108.19 70.58 107.72
  Q 70.01 107.62 69.65 108.08
  Q 68.46 109.55 67.92 111.45
  Q 65.32 120.61 62.79 129.50
  C 60.90 136.11 57.33 141.73 50.44 143.70
  L 46.69 144.45
  L 44.25 134.33
  C 53.53 137.21 59.02 130.65 61.11 122.71
  Q 63.10 115.11 65.19 107.38
  Q 65.77 105.23 67.06 103.29
  C 72.33 95.28 80.10 109.70 87.74 101.75
  Q 92.14 97.15 92.60 89.35
  Z"
/>
<path fill="#d7702a" d="
  M 94.72 96.54
  C 98.89 107.80 101.81 119.54 101.99 131.25
  Q 100.79 132.35 100.24 131.92
  Q 99.89 131.65 99.51 131.87
  C 98.90 132.22 98.37 132.61 98.17 133.32
  C 97.72 134.93 97.73 136.59 97.28 138.18
  Q 95.61 143.99 93.70 150.19
  Q 90.39 160.89 80.70 166.92
  Q 75.40 170.22 68.83 168.14
  C 59.72 165.27 54.94 157.25 52.77 148.19
  C 52.50 147.04 51.62 146.18 50.80 145.41
  Q 50.09 144.74 50.44 143.70
  C 57.33 141.73 60.90 136.11 62.79 129.50
  Q 65.32 120.61 67.92 111.45
  Q 68.46 109.55 69.65 108.08
  Q 70.01 107.62 70.58 107.72
  C 73.29 108.19 75.90 109.30 78.35 110.61
  C 82.43 112.79 86.79 111.68 89.59 108.06
  Q 93.09 103.53 94.72 96.54
  Z
  M 72.30 140.26
  Q 72.09 146.47 76.62 150.80
  C 78.10 152.23 79.91 152.94 81.98 152.48
  C 89.61 150.79 91.39 141.61 90.89 134.95
  A 0.34 0.34 0.0 0 0 90.39 134.68
  Q 90.15 134.82 89.68 135.52
  Q 90.22 131.45 89.18 127.16
  Q 88.49 121.40 83.57 117.45
  C 79.11 113.88 74.14 119.14 72.70 123.00
  Q 69.54 131.46 72.30 140.26
  Z"
/>
<path fill="#ffffff" d="
  M 89.18 127.16
  Q 87.25 128.29 86.77 131.58
  Q 86.21 135.39 85.84 136.32
  C 84.56 139.60 81.70 142.58 77.84 142.86
  Q 76.16 142.98 77.05 144.38
  A 0.59 0.57 -29.1 0 1 76.80 145.20
  Q 76.48 145.36 75.67 145.25
  L 72.30 140.26
  Q 69.54 131.46 72.70 123.00
  C 74.14 119.14 79.11 113.88 83.57 117.45
  Q 88.49 121.40 89.18 127.16
  Z"
/>
<path fill="#f9e1c1" d="
  M 89.18 127.16
  Q 90.22 131.45 89.68 135.52
  Q 88.87 139.61 87.34 142.52
  C 85.31 146.37 79.13 149.58 75.67 145.25
  Q 76.48 145.36 76.80 145.20
  A 0.59 0.57 -29.1 0 0 77.05 144.38
  Q 76.16 142.98 77.84 142.86
  C 81.70 142.58 84.56 139.60 85.84 136.32
  Q 86.21 135.39 86.77 131.58
  Q 87.25 128.29 89.18 127.16
  Z"
/>
<path fill="#cb4816" d="
  M 101.99 131.25
  Q 102.58 145.57 96.08 160.81
  Q 91.83 170.76 83.14 175.87
  Q 79.28 178.14 72.80 178.04
  C 61.21 177.87 54.32 167.18 50.88 157.54
  Q 48.57 151.10 46.69 144.45
  L 50.44 143.70
  Q 50.09 144.74 50.80 145.41
  C 51.62 146.18 52.50 147.04 52.77 148.19
  C 54.94 157.25 59.72 165.27 68.83 168.14
  Q 75.40 170.22 80.70 166.92
  Q 90.39 160.89 93.70 150.19
  Q 95.61 143.99 97.28 138.18
  C 97.73 136.59 97.72 134.93 98.17 133.32
  C 98.37 132.61 98.90 132.22 99.51 131.87
  Q 99.89 131.65 100.24 131.92
  Q 100.79 132.35 101.99 131.25
  Z"
/>
<path fill="#aa2206" d="
  M 72.30 140.26
  L 75.67 145.25
  C 79.13 149.58 85.31 146.37 87.34 142.52
  Q 88.87 139.61 89.68 135.52
  Q 90.15 134.82 90.39 134.68
  A 0.34 0.34 0.0 0 1 90.89 134.95
  C 91.39 141.61 89.61 150.79 81.98 152.48
  C 79.91 152.94 78.10 152.23 76.62 150.80
  Q 72.09 146.47 72.30 140.26
  Z"
/>
</svg>
