<?xml version="1.0" encoding="UTF-8"?>
<!DOCTYPE svg PUBLIC "-//W3C//DTD SVG 1.1//EN" "http://www.w3.org/Graphics/SVG/1.1/DTD/svg11.dtd">
<svg xmlns="http://www.w3.org/2000/svg" version="1.1" width="127px" height="171px" style="shape-rendering:geometricPrecision; text-rendering:geometricPrecision; image-rendering:optimizeQuality; fill-rule:evenodd; clip-rule:evenodd" xmlns:xlink="http://www.w3.org/1999/xlink">
<g><path style="opacity:0.169" fill="#94a9cc" d="M 54.5,-0.5 C 55.1667,-0.5 55.8333,-0.5 56.5,-0.5C 56.8333,0.833333 57.1667,0.833333 57.5,-0.5C 59.5,-0.5 61.5,-0.5 63.5,-0.5C 64.172,0.267389 65.0053,0.934056 66,1.5C 66.3333,4.5 66.6667,7.5 67,10.5C 67.414,10.9574 67.914,11.2907 68.5,11.5C 76.9616,10.1837 85.295,10.1837 93.5,11.5C 88.6946,12.4872 83.6946,12.8205 78.5,12.5C 73.8333,12.5 69.1667,12.5 64.5,12.5C 64.5,10.1667 64.5,7.83333 64.5,5.5C 64.4894,3.98261 63.8228,2.81595 62.5,2C 59.633,1.19927 56.9664,1.36594 54.5,2.5C 53.5041,2.41423 52.6708,2.74756 52,3.5C 51.5017,6.81677 51.335,10.1501 51.5,13.5C 34.8503,14.3726 18.1837,14.7059 1.5,14.5C 2.17197,13.7326 3.0053,13.0659 4,12.5C 9.40534,12.2862 14.9053,12.6195 20.5,13.5C 29.497,12.9475 38.497,12.4475 47.5,12C 49.5541,8.54809 50.7207,5.04809 51,1.5C 52.3024,0.915201 53.469,0.248534 54.5,-0.5 Z"/></g>
<g><path style="opacity:1" fill="#af7b4c" d="M 62.5,4.5 C 62.5,7.5 62.5,10.5 62.5,13.5C 59.8333,13.5 57.1667,13.5 54.5,13.5C 54.5,10.8333 54.5,8.16667 54.5,5.5C 56.7991,3.23132 59.4658,2.89799 62.5,4.5 Z"/></g>
<g><path style="opacity:1" fill="#3b2f2e" d="M 64.5,5.5 C 63.8333,5.16667 63.1667,4.83333 62.5,4.5C 59.4658,2.89799 56.7991,3.23132 54.5,5.5C 53.8333,8.5 53.1667,11.5 52.5,14.5C 51.9905,10.1869 52.6571,6.18691 54.5,2.5C 56.9664,1.36594 59.633,1.19927 62.5,2C 63.8228,2.81595 64.4894,3.98261 64.5,5.5 Z"/></g>
<g><path style="opacity:1" fill="#354052" d="M 93.5,11.5 C 93.8333,11.5 94.1667,11.5 94.5,11.5C 102.5,11.5 110.5,11.5 118.5,11.5C 118.167,12.1667 117.833,12.8333 117.5,13.5C 117.167,13.5 116.833,13.5 116.5,13.5C 113.167,13.5 109.833,13.5 106.5,13.5C 101.167,13.5 95.8333,13.5 90.5,13.5C 86.2984,13.8168 82.2984,13.4834 78.5,12.5C 83.6946,12.8205 88.6946,12.4872 93.5,11.5 Z"/></g>
<g><path style="opacity:1" fill="#6f5540" d="M 62.5,4.5 C 63.1667,4.83333 63.8333,5.16667 64.5,5.5C 64.5,7.83333 64.5,10.1667 64.5,12.5C 64.5,13.1667 64.5,13.8333 64.5,14.5C 60.2315,15.3726 55.8982,15.7059 51.5,15.5C 51.5,14.8333 51.8333,14.5 52.5,14.5C 53.1667,11.5 53.8333,8.5 54.5,5.5C 54.5,8.16667 54.5,10.8333 54.5,13.5C 57.1667,13.5 59.8333,13.5 62.5,13.5C 62.5,10.5 62.5,7.5 62.5,4.5 Z"/></g>
<g><path style="opacity:1" fill="#c27e38" d="M 55.5,5.5 C 57.5,5.5 59.5,5.5 61.5,5.5C 61.5,7.5 61.5,9.5 61.5,11.5C 59.5,11.5 57.5,11.5 55.5,11.5C 55.5,9.5 55.5,7.5 55.5,5.5 Z"/></g>
<g><path style="opacity:1" fill="#606678" d="M 64.5,12.5 C 69.1667,12.5 73.8333,12.5 78.5,12.5C 82.2984,13.4834 86.2984,13.8168 90.5,13.5C 82.0161,14.493 73.3494,14.8264 64.5,14.5C 64.5,13.8333 64.5,13.1667 64.5,12.5 Z"/></g>
<g><path style="opacity:1" fill="#5d6a80" d="M 54.5,2.5 C 52.6571,6.18691 51.9905,10.1869 52.5,14.5C 51.8333,14.5 51.5,14.8333 51.5,15.5C 49.8333,15.5 48.1667,15.5 46.5,15.5C 34.8187,15.434 23.152,15.7673 11.5,16.5C 8.37518,15.5206 5.04185,15.1872 1.5,15.5C 1.5,15.1667 1.5,14.8333 1.5,14.5C 18.1837,14.7059 34.8503,14.3726 51.5,13.5C 51.335,10.1501 51.5017,6.81677 52,3.5C 52.6708,2.74756 53.5041,2.41423 54.5,2.5 Z"/></g>
<g><path style="opacity:1" fill="#3b2132" d="M 118.5,11.5 C 120.167,11.5 121.833,11.5 123.5,11.5C 123.784,13.4147 123.451,15.0813 122.5,16.5C 122.5,15.8333 122.167,15.5 121.5,15.5C 120.817,13.8235 119.483,13.1568 117.5,13.5C 117.833,12.8333 118.167,12.1667 118.5,11.5 Z"/></g>
<g><path style="opacity:1" fill="#d7c9c7" d="M 106.5,13.5 C 109.833,13.5 113.167,13.5 116.5,13.5C 113.746,14.9459 110.746,15.9459 107.5,16.5C 106.5,16.5 105.5,16.5 104.5,16.5C 100.116,16.1744 95.7828,16.5078 91.5,17.5C 88.8512,18.9722 86.0179,19.9722 83,20.5C 79.078,19.1963 75.9113,20.363 73.5,24C 69.3347,24.7054 65.3347,25.5387 61.5,26.5C 59.8333,26.5 58.1667,26.5 56.5,26.5C 58.5632,25.6285 60.5632,24.4618 62.5,23C 66.5734,22.488 70.5734,21.6547 74.5,20.5C 74.8627,19.8165 75.1961,19.1499 75.5,18.5C 79.4885,18.8836 83.1552,18.217 86.5,16.5C 93.2119,15.0615 99.8785,14.0615 106.5,13.5 Z"/></g>
<g><path style="opacity:1" fill="#949da8" d="M 46.5,15.5 C 37.012,16.5662 27.3454,17.2329 17.5,17.5C 16.1667,17.5 14.8333,17.5 13.5,17.5C 12.5,17.5 11.5,17.5 10.5,17.5C 8.16667,17.5 5.83333,17.5 3.5,17.5C 5.9479,16.5269 8.61456,16.1936 11.5,16.5C 23.152,15.7673 34.8187,15.434 46.5,15.5 Z"/></g>
<g><path style="opacity:1" fill="#b3b6b7" d="M 90.5,13.5 C 95.8333,13.5 101.167,13.5 106.5,13.5C 99.8785,14.0615 93.2119,15.0615 86.5,16.5C 66.6704,17.1583 46.8371,17.8249 27,18.5C 23.6482,18.4982 20.4815,18.1649 17.5,17.5C 27.3454,17.2329 37.012,16.5662 46.5,15.5C 48.1667,15.5 49.8333,15.5 51.5,15.5C 55.8982,15.7059 60.2315,15.3726 64.5,14.5C 73.3494,14.8264 82.0161,14.493 90.5,13.5 Z"/></g>
<g><path style="opacity:1" fill="#c6c9c5" d="M 86.5,16.5 C 83.1552,18.217 79.4885,18.8836 75.5,18.5C 67.1794,19.8013 58.8461,19.8013 50.5,18.5C 38.5095,19.373 26.5095,19.5396 14.5,19C 13.944,18.6174 13.6107,18.1174 13.5,17.5C 14.8333,17.5 16.1667,17.5 17.5,17.5C 20.4815,18.1649 23.6482,18.4982 27,18.5C 46.8371,17.8249 66.6704,17.1583 86.5,16.5 Z"/></g>
<g><path style="opacity:1" fill="#c84c54" d="M 116.5,13.5 C 116.833,13.5 117.167,13.5 117.5,13.5C 119.483,13.1568 120.817,13.8235 121.5,15.5C 121.5,15.8333 121.5,16.1667 121.5,16.5C 116.5,17.8333 111.5,19.1667 106.5,20.5C 105.022,20.762 103.689,20.4287 102.5,19.5C 104.36,18.6751 106.026,17.6751 107.5,16.5C 110.746,15.9459 113.746,14.9459 116.5,13.5 Z"/></g>
<g><path style="opacity:1" fill="#d9d6d3" d="M 50.5,18.5 C 58.8461,19.8013 67.1794,19.8013 75.5,18.5C 75.1961,19.1499 74.8627,19.8165 74.5,20.5C 70.5734,21.6547 66.5734,22.488 62.5,23C 60.5632,24.4618 58.5632,25.6285 56.5,26.5C 51.2297,26.8669 45.8964,27.0336 40.5,27C 37.3277,29.4192 33.9943,31.5858 30.5,33.5C 29.4777,33.1445 28.811,32.4778 28.5,31.5C 29.1667,31.5 29.5,31.1667 29.5,30.5C 33.3556,30.1621 36.6889,28.6621 39.5,26C 42.5535,25.8214 45.5535,25.3214 48.5,24.5C 50.0916,22.7751 49.7583,21.7751 47.5,21.5C 48.6935,20.7281 49.6935,19.7281 50.5,18.5 Z"/></g>
<g><path style="opacity:1" fill="#f3d4d1" d="M 121.5,16.5 C 121.5,16.8333 121.5,17.1667 121.5,17.5C 118.92,18.1234 116.586,19.2901 114.5,21C 112.527,21.4955 110.527,21.6621 108.5,21.5C 107.833,21.5 107.167,21.5 106.5,21.5C 106.5,21.1667 106.5,20.8333 106.5,20.5C 111.5,19.1667 116.5,17.8333 121.5,16.5 Z"/></g>
<g><path style="opacity:1" fill="#d7dedc" d="M 47.5,21.5 C 49.7583,21.7751 50.0916,22.7751 48.5,24.5C 45.5535,25.3214 42.5535,25.8214 39.5,26C 36.6889,28.6621 33.3556,30.1621 29.5,30.5C 31.0438,27.752 31.7105,24.752 31.5,21.5C 37.2567,21.8805 42.59,21.8805 47.5,21.5 Z"/></g>
<g><path style="opacity:1" fill="#dbb8b7" d="M 104.5,16.5 C 96.1699,20.7882 87.1699,22.9549 77.5,23C 75.5743,23.4224 74.5743,24.5891 74.5,26.5C 72.5,26.5 70.5,26.5 68.5,26.5C 66.1667,26.5 63.8333,26.5 61.5,26.5C 65.3347,25.5387 69.3347,24.7054 73.5,24C 75.9113,20.363 79.078,19.1963 83,20.5C 86.0179,19.9722 88.8512,18.9722 91.5,17.5C 95.7828,16.5078 100.116,16.1744 104.5,16.5 Z"/></g>
<g><path style="opacity:1" fill="#cfd8d6" d="M 10.5,17.5 C 11.5,17.5 12.5,17.5 13.5,17.5C 13.6107,18.1174 13.944,18.6174 14.5,19C 26.5095,19.5396 38.5095,19.373 50.5,18.5C 49.6935,19.7281 48.6935,20.7281 47.5,21.5C 42.59,21.8805 37.2567,21.8805 31.5,21.5C 31.7105,24.752 31.0438,27.752 29.5,30.5C 29.5,31.1667 29.1667,31.5 28.5,31.5C 27.1346,27.7458 24.4679,26.5791 20.5,28C 19.9298,30.7555 18.9298,33.2555 17.5,35.5C 16.6522,34.375 15.6522,34.375 14.5,35.5C 14.2035,32.2761 14.8702,29.2761 16.5,26.5C 15.2178,22.9146 13.2178,19.9146 10.5,17.5 Z"/></g>
<g><path style="opacity:1" fill="#d8a2a6" d="M 104.5,16.5 C 105.5,16.5 106.5,16.5 107.5,16.5C 106.026,17.6751 104.36,18.6751 102.5,19.5C 103.689,20.4287 105.022,20.762 106.5,20.5C 106.5,20.8333 106.5,21.1667 106.5,21.5C 106.5,21.8333 106.5,22.1667 106.5,22.5C 104.364,23.4026 102.364,24.5693 100.5,26C 95.256,26.0117 90.256,26.845 85.5,28.5C 83.3318,27.8214 81.3318,26.8214 79.5,25.5C 77.8653,26.0463 76.1986,26.3796 74.5,26.5C 74.5743,24.5891 75.5743,23.4224 77.5,23C 87.1699,22.9549 96.1699,20.7882 104.5,16.5 Z"/></g>
<g><path style="opacity:1" fill="#1e2c45" d="M 1.5,15.5 C 5.04185,15.1872 8.37518,15.5206 11.5,16.5C 8.61456,16.1936 5.9479,16.5269 3.5,17.5C 2.51283,22.3054 2.17949,27.3054 2.5,32.5C 2.78448,34.4147 2.45115,36.0813 1.5,37.5C 1.01037,29.9843 1.01037,22.651 1.5,15.5 Z"/></g>
<g><path style="opacity:1" fill="#e8ebe8" d="M 121.5,17.5 C 121.5,21.1667 121.5,24.8333 121.5,28.5C 120.883,28.6107 120.383,28.944 120,29.5C 119.589,33.4709 118.589,36.8043 117,39.5C 114.266,38.6383 114.099,37.805 116.5,37C 113.949,36.9977 111.949,36.1644 110.5,34.5C 110.219,31.1834 110.219,28.0168 110.5,25C 109.027,24.2904 108.36,23.1238 108.5,21.5C 110.527,21.6621 112.527,21.4955 114.5,21C 116.586,19.2901 118.92,18.1234 121.5,17.5 Z"/></g>
<g><path style="opacity:1" fill="#d8dfdf" d="M 3.5,17.5 C 5.83333,17.5 8.16667,17.5 10.5,17.5C 13.2178,19.9146 15.2178,22.9146 16.5,26.5C 14.8702,29.2761 14.2035,32.2761 14.5,35.5C 13.2493,37.2199 11.7493,37.5532 10,36.5C 8.74751,39.0135 8.24751,41.6802 8.5,44.5C 6.6203,44.2291 5.28696,44.8958 4.5,46.5C 4.16667,46.5 3.83333,46.5 3.5,46.5C 3.81946,41.6367 3.48612,36.97 2.5,32.5C 2.17949,27.3054 2.51283,22.3054 3.5,17.5 Z"/></g>
<g><path style="opacity:1" fill="#cabebc" d="M 56.5,26.5 C 52.1633,28.4009 47.4966,29.5676 42.5,30C 40.0229,32.815 37.0229,34.815 33.5,36C 27.6535,36.7746 21.9868,37.9412 16.5,39.5C 17.2341,38.2921 17.5674,36.9587 17.5,35.5C 18.9298,33.2555 19.9298,30.7555 20.5,28C 24.4679,26.5791 27.1346,27.7458 28.5,31.5C 28.811,32.4778 29.4777,33.1445 30.5,33.5C 33.9943,31.5858 37.3277,29.4192 40.5,27C 45.8964,27.0336 51.2297,26.8669 56.5,26.5 Z"/></g>
<g><path style="opacity:1" fill="#c49597" d="M 85.5,28.5 C 83.7706,29.2362 82.7706,30.5695 82.5,32.5C 69.6377,35.2918 56.6377,37.6251 43.5,39.5C 40.8431,39.838 38.5098,39.1713 36.5,37.5C 37.4978,34.9722 38.3311,34.9722 39,37.5C 39.7845,35.714 40.9512,34.214 42.5,33C 46.8333,32.6667 51.1667,32.3333 55.5,32C 59.4428,29.0226 63.7762,27.1892 68.5,26.5C 70.5,26.5 72.5,26.5 74.5,26.5C 76.1986,26.3796 77.8653,26.0463 79.5,25.5C 81.3318,26.8214 83.3318,27.8214 85.5,28.5 Z"/></g>
<g><path style="opacity:1" fill="#d1b4b4" d="M 106.5,22.5 C 106.443,23.609 106.11,24.609 105.5,25.5C 104.115,26.5736 102.949,27.9069 102,29.5C 98.7312,28.1816 95.5645,28.1816 92.5,29.5C 89.1968,30.4386 85.8635,31.4386 82.5,32.5C 82.7706,30.5695 83.7706,29.2362 85.5,28.5C 90.256,26.845 95.256,26.0117 100.5,26C 102.364,24.5693 104.364,23.4026 106.5,22.5 Z"/></g>
<g><path style="opacity:0.361" fill="#8b9fc9" d="M 126.5,21.5 C 126.5,22.1667 126.5,22.8333 126.5,23.5C 125.167,25.5 125.167,27.5 126.5,29.5C 126.5,32.8333 126.5,36.1667 126.5,39.5C 125.795,42.2281 125.128,45.0614 124.5,48C 119.177,48.4994 113.844,48.666 108.5,48.5C 108.5,48.1667 108.5,47.8333 108.5,47.5C 113.88,47.6757 119.213,47.3424 124.5,46.5C 124.828,34.6547 124.495,22.988 123.5,11.5C 121.833,11.5 120.167,11.5 118.5,11.5C 110.5,11.5 102.5,11.5 94.5,11.5C 101.655,10.6712 108.989,10.1712 116.5,10C 114.065,8.99662 114.398,8.49662 117.5,8.5C 121.424,8.70147 121.424,9.20147 117.5,10C 120.146,10.4974 122.813,10.6641 125.5,10.5C 125.185,14.3714 125.518,18.0381 126.5,21.5 Z"/></g>
<g><path style="opacity:1" fill="#cea7a9" d="M 56.5,26.5 C 58.1667,26.5 59.8333,26.5 61.5,26.5C 63.8333,26.5 66.1667,26.5 68.5,26.5C 63.7762,27.1892 59.4428,29.0226 55.5,32C 51.1667,32.3333 46.8333,32.6667 42.5,33C 40.9512,34.214 39.7845,35.714 39,37.5C 38.3311,34.9722 37.4978,34.9722 36.5,37.5C 38.5098,39.1713 40.8431,39.838 43.5,39.5C 41.0521,40.4731 38.3854,40.8064 35.5,40.5C 31.1539,40.3343 26.8206,40.501 22.5,41C 21.1456,42.2937 19.8123,42.4604 18.5,41.5C 16.9745,41.9943 15.6412,42.661 14.5,43.5C 13.1667,43.8333 11.8333,44.1667 10.5,44.5C 12.4079,42.8362 14.4079,41.1695 16.5,39.5C 21.9868,37.9412 27.6535,36.7746 33.5,36C 37.0229,34.815 40.0229,32.815 42.5,30C 47.4966,29.5676 52.1633,28.4009 56.5,26.5 Z"/></g>
<g><path style="opacity:1" fill="#e5ebeb" d="M 121.5,28.5 C 122.4,33.772 122.733,39.1053 122.5,44.5C 118.5,44.5 114.5,44.5 110.5,44.5C 110.953,43.5416 111.619,42.7083 112.5,42C 111.039,40.6491 109.706,39.1491 108.5,37.5C 108.942,36.2613 109.609,35.2613 110.5,34.5C 111.949,36.1644 113.949,36.9977 116.5,37C 114.099,37.805 114.266,38.6383 117,39.5C 118.589,36.8043 119.589,33.4709 120,29.5C 120.383,28.944 120.883,28.6107 121.5,28.5 Z"/></g>
<g><path style="opacity:1" fill="#bfc1bd" d="M 105.5,25.5 C 105.81,28.7131 105.477,31.7131 104.5,34.5C 101.752,36.0438 98.752,36.7105 95.5,36.5C 95.9746,33.9179 95.3079,31.9179 93.5,30.5C 93.5,29.8333 93.1667,29.5 92.5,29.5C 95.5645,28.1816 98.7312,28.1816 102,29.5C 102.949,27.9069 104.115,26.5736 105.5,25.5 Z"/></g>
<g><path style="opacity:1" fill="#d5c5c4" d="M 92.5,29.5 C 93.1667,29.5 93.5,29.8333 93.5,30.5C 90.9922,32.9236 87.9922,34.5903 84.5,35.5C 77.9382,36.1057 71.6049,37.4391 65.5,39.5C 66.7653,38.5207 68.0986,37.5207 69.5,36.5C 73.9053,35.0208 78.2386,33.6874 82.5,32.5C 85.8635,31.4386 89.1968,30.4386 92.5,29.5 Z"/></g>
<g><path style="opacity:1" fill="#6f7a7b" d="M 121.5,15.5 C 122.167,15.5 122.5,15.8333 122.5,16.5C 123.278,26.0031 123.278,35.3365 122.5,44.5C 122.733,39.1053 122.4,33.772 121.5,28.5C 121.5,24.8333 121.5,21.1667 121.5,17.5C 121.5,17.1667 121.5,16.8333 121.5,16.5C 121.5,16.1667 121.5,15.8333 121.5,15.5 Z"/></g>
<g><path style="opacity:1" fill="#d3d5d8" d="M 93.5,30.5 C 95.3079,31.9179 95.9746,33.9179 95.5,36.5C 98.752,36.7105 101.752,36.0438 104.5,34.5C 104.108,37.1457 104.108,39.6457 104.5,42C 103.619,42.7083 102.953,43.5416 102.5,44.5C 94.1912,43.7119 85.8578,43.3786 77.5,43.5C 78.2625,42.7321 79.2625,42.2321 80.5,42C 79.376,41.7508 78.376,41.2508 77.5,40.5C 81.0647,40.9804 83.398,39.3137 84.5,35.5C 87.9922,34.5903 90.9922,32.9236 93.5,30.5 Z"/></g>
<g><path style="opacity:1" fill="#e2d5d3" d="M 17.5,35.5 C 17.5674,36.9587 17.2341,38.2921 16.5,39.5C 14.4079,41.1695 12.4079,42.8362 10.5,44.5C 9.83333,44.5 9.5,44.8333 9.5,45.5C 7.7839,45.6287 6.11723,45.962 4.5,46.5C 5.28696,44.8958 6.6203,44.2291 8.5,44.5C 8.24751,41.6802 8.74751,39.0135 10,36.5C 11.7493,37.5532 13.2493,37.2199 14.5,35.5C 15.6522,34.375 16.6522,34.375 17.5,35.5 Z"/></g>
<g><path style="opacity:1" fill="#d1d2ce" d="M 84.5,35.5 C 83.398,39.3137 81.0647,40.9804 77.5,40.5C 78.376,41.2508 79.376,41.7508 80.5,42C 79.2625,42.2321 78.2625,42.7321 77.5,43.5C 72.1563,43.666 66.8229,43.4994 61.5,43C 62.5908,41.4499 63.9242,40.2832 65.5,39.5C 71.6049,37.4391 77.9382,36.1057 84.5,35.5 Z"/></g>
<g><path style="opacity:0.162" fill="#94aad1" d="M -0.5,14.5 C 0.166667,14.5 0.833333,14.5 1.5,14.5C 1.5,14.8333 1.5,15.1667 1.5,15.5C 1.01037,22.651 1.01037,29.9843 1.5,37.5C 1.18054,42.3633 1.51388,47.03 2.5,51.5C 4.26465,52.4614 6.26465,52.7947 8.5,52.5C 7.46905,53.2485 6.30238,53.9152 5,54.5C 3.43049,54.33 1.59716,53.9967 -0.5,53.5C -0.5,40.5 -0.5,27.5 -0.5,14.5 Z"/></g>
<g><path style="opacity:1" fill="#e0e4e2" d="M 106.5,21.5 C 107.167,21.5 107.833,21.5 108.5,21.5C 108.36,23.1238 109.027,24.2904 110.5,25C 110.219,28.0168 110.219,31.1834 110.5,34.5C 109.609,35.2613 108.942,36.2613 108.5,37.5C 109.706,39.1491 111.039,40.6491 112.5,42C 111.619,42.7083 110.953,43.5416 110.5,44.5C 107.833,44.5 105.167,44.5 102.5,44.5C 102.953,43.5416 103.619,42.7083 104.5,42C 104.108,39.6457 104.108,37.1457 104.5,34.5C 105.477,31.7131 105.81,28.7131 105.5,25.5C 106.11,24.609 106.443,23.609 106.5,22.5C 106.5,22.1667 106.5,21.8333 106.5,21.5 Z"/></g>
<g><path style="opacity:1" fill="#d0aeae" d="M 82.5,32.5 C 78.2386,33.6874 73.9053,35.0208 69.5,36.5C 68.0986,37.5207 66.7653,38.5207 65.5,39.5C 54.6079,39.9869 43.9412,41.3202 33.5,43.5C 34.1667,42.5 34.8333,41.5 35.5,40.5C 38.3854,40.8064 41.0521,40.4731 43.5,39.5C 56.6377,37.6251 69.6377,35.2918 82.5,32.5 Z"/></g>
<g><path style="opacity:1" fill="#cfa2a1" d="M 35.5,40.5 C 34.8333,41.5 34.1667,42.5 33.5,43.5C 33.4226,44.7498 32.756,45.5831 31.5,46C 25.9073,46.5686 20.5739,47.7352 15.5,49.5C 13.8333,49.5 12.1667,49.5 10.5,49.5C 10.5,49.1667 10.5,48.8333 10.5,48.5C 11.1667,48.5 11.8333,48.5 12.5,48.5C 15.7967,48.3683 17.4633,46.7016 17.5,43.5C 16.5,43.5 15.5,43.5 14.5,43.5C 15.6412,42.661 16.9745,41.9943 18.5,41.5C 19.8123,42.4604 21.1456,42.2937 22.5,41C 26.8206,40.501 31.1539,40.3343 35.5,40.5 Z"/></g>
<g><path style="opacity:1" fill="#3e4657" d="M 2.5,32.5 C 3.48612,36.97 3.81946,41.6367 3.5,46.5C 2.54885,47.9187 2.21552,49.5853 2.5,51.5C 1.51388,47.03 1.18054,42.3633 1.5,37.5C 2.45115,36.0813 2.78448,34.4147 2.5,32.5 Z"/></g>
<g><path style="opacity:1" fill="#d28384" d="M 14.5,43.5 C 15.5,43.5 16.5,43.5 17.5,43.5C 17.4633,46.7016 15.7967,48.3683 12.5,48.5C 13.5669,46.1205 12.5669,45.1205 9.5,45.5C 9.5,44.8333 9.83333,44.5 10.5,44.5C 11.8333,44.1667 13.1667,43.8333 14.5,43.5 Z"/></g>
<g><path style="opacity:1" fill="#bdb9b5" d="M 65.5,39.5 C 63.9242,40.2832 62.5908,41.4499 61.5,43C 66.8229,43.4994 72.1563,43.666 77.5,43.5C 85.8578,43.3786 94.1912,43.7119 102.5,44.5C 105.167,44.5 107.833,44.5 110.5,44.5C 114.5,44.5 118.5,44.5 122.5,44.5C 114.684,45.4924 106.684,45.8257 98.5,45.5C 77.9362,44.966 57.6028,45.966 37.5,48.5C 30.1464,48.4792 22.8131,48.8125 15.5,49.5C 20.5739,47.7352 25.9073,46.5686 31.5,46C 32.756,45.5831 33.4226,44.7498 33.5,43.5C 43.9412,41.3202 54.6079,39.9869 65.5,39.5 Z"/></g>
<g><path style="opacity:1" fill="#9e9ea2" d="M 98.5,45.5 C 98.1583,46.3382 97.4916,46.6716 96.5,46.5C 85.4187,46.1901 74.4187,46.5234 63.5,47.5C 59.6286,47.185 55.9619,47.5184 52.5,48.5C 47.5,48.5 42.5,48.5 37.5,48.5C 57.6028,45.966 77.9362,44.966 98.5,45.5 Z"/></g>
<g><path style="opacity:1" fill="#c5685f" d="M 9.5,45.5 C 12.5669,45.1205 13.5669,46.1205 12.5,48.5C 11.8333,48.5 11.1667,48.5 10.5,48.5C 12.0544,47.1054 11.721,46.4387 9.5,46.5C 7.86529,47.0463 6.19863,47.3796 4.5,47.5C 4.16667,47.5 3.83333,47.5 3.5,47.5C 3.5,47.1667 3.5,46.8333 3.5,46.5C 3.83333,46.5 4.16667,46.5 4.5,46.5C 6.11723,45.962 7.7839,45.6287 9.5,45.5 Z"/></g>
<g><path style="opacity:1" fill="#394554" d="M 123.5,11.5 C 124.495,22.988 124.828,34.6547 124.5,46.5C 119.213,47.3424 113.88,47.6757 108.5,47.5C 104.298,47.8168 100.298,47.4834 96.5,46.5C 97.4916,46.6716 98.1583,46.3382 98.5,45.5C 106.684,45.8257 114.684,45.4924 122.5,44.5C 123.278,35.3365 123.278,26.0031 122.5,16.5C 123.451,15.0813 123.784,13.4147 123.5,11.5 Z"/></g>
<g><path style="opacity:1" fill="#61697f" d="M 96.5,46.5 C 100.298,47.4834 104.298,47.8168 108.5,47.5C 108.5,47.8333 108.5,48.1667 108.5,48.5C 107.5,48.5 106.5,48.5 105.5,48.5C 92.4936,48.6307 79.4936,48.9641 66.5,49.5C 66.5,50.8333 66.5,52.1667 66.5,53.5C 66.5,54.5 66.5,55.5 66.5,56.5C 66.5,91.8333 66.5,127.167 66.5,162.5C 65.8333,124.5 65.1667,86.5 64.5,48.5C 63.8333,48.5 63.5,48.1667 63.5,47.5C 74.4187,46.5234 85.4187,46.1901 96.5,46.5 Z"/></g>
<g><path style="opacity:1" fill="#bb373d" d="M 10.5,48.5 C 10.5,48.8333 10.5,49.1667 10.5,49.5C 7.91791,49.9746 5.91791,49.3079 4.5,47.5C 6.19863,47.3796 7.86529,47.0463 9.5,46.5C 11.721,46.4387 12.0544,47.1054 10.5,48.5 Z"/></g>
<g><path style="opacity:1" fill="#762236" d="M 3.5,47.5 C 3.83333,47.5 4.16667,47.5 4.5,47.5C 5.91791,49.3079 7.91791,49.9746 10.5,49.5C 10.5,50.1667 10.1667,50.5 9.5,50.5C 7.5,50.5 5.5,50.5 3.5,50.5C 3.5,49.5 3.5,48.5 3.5,47.5 Z"/></g>
<g><path style="opacity:1" fill="#434a5b" d="M 37.5,48.5 C 42.5,48.5 47.5,48.5 52.5,48.5C 52.8333,48.5 53.1667,48.5 53.5,48.5C 53.5,59.5 53.5,70.5 53.5,81.5C 53.1667,81.5 52.8333,81.5 52.5,81.5C 52.5,71.1667 52.5,60.8333 52.5,50.5C 40.1534,50.4493 27.8201,50.7826 15.5,51.5C 13.5,51.5 11.5,51.5 9.5,51.5C 9.5,51.1667 9.5,50.8333 9.5,50.5C 10.1667,50.5 10.5,50.1667 10.5,49.5C 12.1667,49.5 13.8333,49.5 15.5,49.5C 22.8131,48.8125 30.1464,48.4792 37.5,48.5 Z"/></g>
<g><path style="opacity:0.733" fill="#9baddb" d="M 105.5,48.5 C 94.1643,49.8308 82.6643,50.8308 71,51.5C 70.1268,51.2645 69.2935,50.9312 68.5,50.5C 67.4937,50.9377 67.4937,51.6043 68.5,52.5C 68.0431,53.2975 67.3764,53.6309 66.5,53.5C 66.5,52.1667 66.5,50.8333 66.5,49.5C 79.4936,48.9641 92.4936,48.6307 105.5,48.5 Z"/></g>
<g><path style="opacity:1" fill="#310920" d="M 3.5,46.5 C 3.5,46.8333 3.5,47.1667 3.5,47.5C 3.5,48.5 3.5,49.5 3.5,50.5C 5.5,50.5 7.5,50.5 9.5,50.5C 9.5,50.8333 9.5,51.1667 9.5,51.5C 7.16667,51.5 4.83333,51.5 2.5,51.5C 2.21552,49.5853 2.54885,47.9187 3.5,46.5 Z"/></g>
<g><path style="opacity:1" fill="#7a81a7" d="M 2.5,51.5 C 4.83333,51.5 7.16667,51.5 9.5,51.5C 11.5,51.5 13.5,51.5 15.5,51.5C 15.1583,52.3382 14.4916,52.6716 13.5,52.5C 11.7659,53.562 10.0992,53.562 8.5,52.5C 6.26465,52.7947 4.26465,52.4614 2.5,51.5 Z"/></g>
<g><path style="opacity:0.067" fill="#a2b6e8" d="M 102.5,53.5 C 103.601,52.4017 104.934,52.235 106.5,53C 105.207,53.49 103.873,53.6567 102.5,53.5 Z"/></g>
<g><path style="opacity:0.067" fill="#a1b8e9" d="M 107.5,53.5 C 107.897,52.475 108.563,52.3083 109.5,53C 108.906,53.4643 108.239,53.631 107.5,53.5 Z"/></g>
<g><path style="opacity:1" fill="#785431" d="M 52.5,48.5 C 55.9619,47.5184 59.6286,47.185 63.5,47.5C 63.5,48.1667 63.8333,48.5 64.5,48.5C 64.8319,88.0035 64.4986,127.337 63.5,166.5C 63.5,127.5 63.5,88.5 63.5,49.5C 60.8333,49.5 58.1667,49.5 55.5,49.5C 55.5,87.8333 55.5,126.167 55.5,164.5C 55.1667,164.5 54.8333,164.5 54.5,164.5C 54.8319,125.663 54.4985,86.9964 53.5,48.5C 53.1667,48.5 52.8333,48.5 52.5,48.5 Z"/></g>
<g><path style="opacity:1" fill="#b67f48" d="M 63.5,166.5 C 62.7261,167.147 61.7261,167.48 60.5,167.5C 58.6455,167.66 57.3121,166.993 56.5,165.5C 55.8333,165.5 55.5,165.167 55.5,164.5C 55.5,126.167 55.5,87.8333 55.5,49.5C 58.1667,49.5 60.8333,49.5 63.5,49.5C 63.5,88.5 63.5,127.5 63.5,166.5 Z"/></g>
<g><path style="opacity:1" fill="#c87b2d" d="M 57.5,53.5 C 59.7224,53.5587 60.7224,54.7253 60.5,57C 59.6877,84.4807 59.1877,111.981 59,139.5C 58.6174,138.944 58.1174,138.611 57.5,138.5C 57.5,110.167 57.5,81.8333 57.5,53.5 Z"/></g>
<g><path style="opacity:0.172" fill="#99add2" d="M 52.5,81.5 C 52.8311,107.672 52.4978,133.672 51.5,159.5C 51.6666,129.165 51.5,98.8315 51,68.5C 50.8283,63.7982 50.3283,59.1315 49.5,54.5C 46.9244,53.1166 47.2577,52.2833 50.5,52C 47.2221,51.7218 44.0554,52.2218 41,53.5C 31.9832,53.5617 22.8165,53.2284 13.5,52.5C 14.4916,52.6716 15.1583,52.3382 15.5,51.5C 27.8201,50.7826 40.1534,50.4493 52.5,50.5C 52.5,60.8333 52.5,71.1667 52.5,81.5 Z"/></g>
<g><path style="opacity:0.947" fill="#646f82" d="M 52.5,81.5 C 52.8333,81.5 53.1667,81.5 53.5,81.5C 54.1577,108.188 53.4911,134.521 51.5,160.5C 51.5,160.167 51.5,159.833 51.5,159.5C 52.4978,133.672 52.8311,107.672 52.5,81.5 Z"/></g>
<g><path style="opacity:1" fill="#352c23" d="M 53.5,48.5 C 54.4985,86.9964 54.8319,125.663 54.5,164.5C 53.609,163.89 52.609,163.557 51.5,163.5C 51.5,162.5 51.5,161.5 51.5,160.5C 53.4911,134.521 54.1577,108.188 53.5,81.5C 53.5,70.5 53.5,59.5 53.5,48.5 Z"/></g>
<g><path style="opacity:0.141" fill="#97afd7" d="M 66.5,56.5 C 67.1745,70.5687 67.8412,84.7354 68.5,99C 67.5065,120.091 67.1732,141.258 67.5,162.5C 67.1667,162.5 66.8333,162.5 66.5,162.5C 66.5,127.167 66.5,91.8333 66.5,56.5 Z"/></g>
<g><path style="opacity:1" fill="#c27e33" d="M 62.5,102.5 C 61.8067,106.565 61.1401,110.732 60.5,115C 61.6503,124.089 61.817,133.255 61,142.5C 59.8648,149.69 59.0315,157.023 58.5,164.5C 57.502,155.859 57.1686,147.192 57.5,138.5C 58.1174,138.611 58.6174,138.944 59,139.5C 59.1877,111.981 59.6877,84.4807 60.5,57C 60.7224,54.7253 59.7224,53.5587 57.5,53.5C 57.5,52.5 57.5,51.5 57.5,50.5C 59.1667,50.5 60.8333,50.5 62.5,50.5C 62.5,67.8333 62.5,85.1667 62.5,102.5 Z"/></g>
<g><path style="opacity:1" fill="#c07e39" d="M 57.5,53.5 C 57.5,81.8333 57.5,110.167 57.5,138.5C 57.1686,147.192 57.502,155.859 58.5,164.5C 59.0315,157.023 59.8648,149.69 61,142.5C 61.817,133.255 61.6503,124.089 60.5,115C 61.1401,110.732 61.8067,106.565 62.5,102.5C 62.5,123.833 62.5,145.167 62.5,166.5C 60.4352,166.483 58.4352,166.15 56.5,165.5C 56.1682,127.996 56.5015,90.6629 57.5,53.5 Z"/></g>
<g><path style="opacity:0.008" fill="#8e9bba" d="M 90.5,162.5 C 89.5,162.5 88.5,162.5 87.5,162.5C 88.7399,160.015 89.7399,160.015 90.5,162.5 Z"/></g>
<g><path style="opacity:0.006" fill="#151a16" d="M 87.5,162.5 C 88.5,162.5 89.5,162.5 90.5,162.5C 90.1667,163.167 89.8333,163.833 89.5,164.5C 88.8333,164.5 88.1667,164.5 87.5,164.5C 87.5,163.833 87.5,163.167 87.5,162.5 Z"/></g>
<g><path style="opacity:0.004" fill="#6f7446" d="M 87.5,164.5 C 88.1667,164.5 88.8333,164.5 89.5,164.5C 90.4782,165.297 90.1449,165.964 88.5,166.5C 87.7025,166.043 87.3691,165.376 87.5,164.5 Z"/></g>
<g><path style="opacity:1" fill="#3d2f1b" d="M 64.5,48.5 C 65.1667,86.5 65.8333,124.5 66.5,162.5C 66.8333,162.5 67.1667,162.5 67.5,162.5C 67.5,163.5 67.5,164.5 67.5,165.5C 65.9519,165.821 65.2852,166.821 65.5,168.5C 64.2905,168.932 63.2905,169.599 62.5,170.5C 60.5,170.5 58.5,170.5 56.5,170.5C 53.3155,169.307 51.6488,166.974 51.5,163.5C 52.609,163.557 53.609,163.89 54.5,164.5C 54.8333,164.5 55.1667,164.5 55.5,164.5C 55.5,165.167 55.8333,165.5 56.5,165.5C 57.3121,166.993 58.6455,167.66 60.5,167.5C 61.7261,167.48 62.7261,167.147 63.5,166.5C 64.4986,127.337 64.8319,88.0035 64.5,48.5 Z"/></g>
<g><path style="opacity:0.031" fill="#757143" d="M 67.5,165.5 C 67.573,167.027 66.9063,168.027 65.5,168.5C 65.2852,166.821 65.9519,165.821 67.5,165.5 Z"/></g>
<g><path style="opacity:0.004" fill="#837d45" d="M 65.5,168.5 C 65.8333,169.167 66.1667,169.833 66.5,170.5C 65.1667,170.5 63.8333,170.5 62.5,170.5C 63.2905,169.599 64.2905,168.932 65.5,168.5 Z"/></g>
</svg>
