<?xml version="1.0" encoding="UTF-8"?>
<!DOCTYPE svg PUBLIC "-//W3C//DTD SVG 1.1//EN" "http://www.w3.org/Graphics/SVG/1.1/DTD/svg11.dtd">
<svg xmlns="http://www.w3.org/2000/svg" version="1.1" width="96px" height="96px" style="shape-rendering:geometricPrecision; text-rendering:geometricPrecision; image-rendering:optimizeQuality; fill-rule:evenodd; clip-rule:evenodd" xmlns:xlink="http://www.w3.org/1999/xlink">
<g><path style="opacity:0.965" fill="#159720" d="M 49.5,4.5 C 63.265,4.03602 76.9317,4.53602 90.5,6C 91.1258,6.75044 91.6258,7.58377 92,8.5C 92.6667,16.8333 92.6667,25.1667 92,33.5C 90.786,35.0488 89.286,36.2155 87.5,37C 78.5,37.3333 69.5,37.6667 60.5,38C 57.5,41 54.5,44 51.5,47C 49.4213,47.8077 47.4213,47.641 45.5,46.5C 44.3542,34.546 44.1875,22.546 45,10.5C 45.5985,7.74583 47.0985,5.74583 49.5,4.5 Z M 52.5,11.5 C 63.5,11.5 74.5,11.5 85.5,11.5C 85.5,17.5 85.5,23.5 85.5,29.5C 76.4938,29.3336 67.4938,29.5002 58.5,30C 56.3762,31.1217 54.5429,32.6217 53,34.5C 52.5003,26.8406 52.3336,19.1739 52.5,11.5 Z"/></g>
<g><path style="opacity:0.942" fill="#14981f" d="M 20.5,28.5 C 36.8405,27.3327 43.3405,34.666 40,50.5C 34.3571,58.5213 26.8571,60.688 17.5,57C 9.88771,50.1573 8.72104,42.3239 14,33.5C 15.9651,31.4497 18.1318,29.783 20.5,28.5 Z M 23.5,35.5 C 31.6616,35.4983 34.8283,39.4983 33,47.5C 28.3333,52.8333 23.6667,52.8333 19,47.5C 17.4742,42.2389 18.9742,38.2389 23.5,35.5 Z"/></g>
<g><path style="opacity:0.928" fill="#14981f" d="M 5.5,62.5 C 19.1707,62.3334 32.8374,62.5001 46.5,63C 54.3698,77.0207 50.3698,86.0207 34.5,90C 26.652,91.0882 18.9853,90.4215 11.5,88C 3.18932,84.0928 0.0226507,77.5928 2,68.5C 2.56375,66.1133 3.73042,64.1133 5.5,62.5 Z M 9.5,69.5 C 20.5,69.5 31.5,69.5 42.5,69.5C 43.2309,73.6034 42.2309,77.1034 39.5,80C 29.0817,85.2483 19.2483,84.415 10,77.5C 9.50258,74.854 9.33591,72.1873 9.5,69.5 Z"/></g>
</svg>
