<?xml version="1.0" encoding="UTF-8"?>
<!DOCTYPE svg PUBLIC "-//W3C//DTD SVG 1.1//EN" "http://www.w3.org/Graphics/SVG/1.1/DTD/svg11.dtd">
<svg xmlns="http://www.w3.org/2000/svg" version="1.1" width="100px" height="100px" style="shape-rendering:geometricPrecision; text-rendering:geometricPrecision; image-rendering:optimizeQuality; fill-rule:evenodd; clip-rule:evenodd" xmlns:xlink="http://www.w3.org/1999/xlink">
<g><path style="opacity:0.968" fill="#14721c" d="M 72.5,-0.5 C 77.1667,-0.5 81.8333,-0.5 86.5,-0.5C 88.7686,0.97576 91.1019,2.47576 93.5,4C 95.7519,6.73612 97.7519,9.56945 99.5,12.5C 99.5,17.1667 99.5,21.8333 99.5,26.5C 93.6028,38.1077 84.2695,42.1077 71.5,38.5C 67.8918,41.31 63.8918,42.9766 59.5,43.5C 59.3729,39.0511 60.3729,34.8844 62.5,31C 55.7867,17.1592 59.12,6.65924 72.5,-0.5 Z M 78.5,9.5 C 79.4959,9.41423 80.3292,9.74756 81,10.5C 81.6667,13.8333 81.6667,17.1667 81,20.5C 80,21.8333 79,21.8333 78,20.5C 77.2446,16.7446 77.4113,13.0779 78.5,9.5 Z M 78.5,25.5 C 81.8606,26.2032 82.1939,27.5365 79.5,29.5C 77.3576,28.5629 77.0243,27.2296 78.5,25.5 Z"/></g>
<g><path style="opacity:0.977" fill="#14721c" d="M -0.5,91.5 C -0.5,89.1667 -0.5,86.8333 -0.5,84.5C 1.21311,81.2745 3.54644,78.4412 6.5,76C 12.0813,73.1402 17.7479,70.4735 23.5,68C 24.3567,67.3109 25.0233,66.4776 25.5,65.5C 23.6125,58.1661 20.9458,51.1661 17.5,44.5C 18.6008,40.0198 18.6008,35.5198 17.5,31C 19.3631,16.214 27.6965,10.5474 42.5,14C 48.3649,15.5109 52.5316,19.0109 55,24.5C 55.1327,31.2136 55.2994,37.8803 55.5,44.5C 53.2731,49.4352 51.1064,54.4352 49,59.5C 46.878,62.5023 47.0446,65.3356 49.5,68C 54.0025,70.3895 58.6692,72.3895 63.5,74C 70.6022,77.7069 73.9356,83.5402 73.5,91.5C 48.8333,91.5 24.1667,91.5 -0.5,91.5 Z"/></g>
</svg>
