<?xml version="1.0" encoding="UTF-8"?>
<!DOCTYPE svg PUBLIC "-//W3C//DTD SVG 1.1//EN" "http://www.w3.org/Graphics/SVG/1.1/DTD/svg11.dtd">
<svg xmlns="http://www.w3.org/2000/svg" version="1.1" width="68px" height="68px" style="shape-rendering:geometricPrecision; text-rendering:geometricPrecision; image-rendering:optimizeQuality; fill-rule:evenodd; clip-rule:evenodd" xmlns:xlink="http://www.w3.org/1999/xlink">
<g><path style="opacity:1" fill="rgb(87, 62, 232)" d="M -0.5,24.5 C -0.5,18.1667 -0.5,11.8333 -0.5,5.5C 0.596413,3.89683 1.92975,2.39683 3.5,1C 14.1667,0.333333 24.8333,0.333333 35.5,1C 37.3333,1.5 38.5,2.66667 39,4.5C 39.6667,11.5 39.6667,18.5 39,25.5C 38.6258,26.4162 38.1258,27.2496 37.5,28C 31.2752,29.2507 24.9418,29.9173 18.5,30C 15.8963,32.2859 13.063,34.1193 10,35.5C 7.09397,34.6167 5.92731,32.6167 6.5,29.5C 3.33147,28.9975 0.998137,27.3309 -0.5,24.5 Z M 5.5,3.5 C 15.1724,3.33353 24.8391,3.5002 34.5,4C 35.1258,4.75044 35.6258,5.58377 36,6.5C 36.6667,12.1667 36.6667,17.8333 36,23.5C 35.6258,24.4162 35.1258,25.2496 34.5,26C 28.5,26.3333 22.5,26.6667 16.5,27C 14.6116,29.1896 12.4449,31.0229 10,32.5C 9.50454,30.5273 9.33788,28.5273 9.5,26.5C 6.63196,26.915 4.46529,25.915 3,23.5C 2.33333,17.8333 2.33333,12.1667 3,6.5C 3.69794,5.30943 4.53128,4.30943 5.5,3.5 Z M 19.5,11.5 C 23.9163,15.6781 23.2497,17.1781 17.5,16C 18.5822,14.6703 19.2488,13.1703 19.5,11.5 Z"/></g>
<g><path style="opacity:1" fill="rgb(87, 62, 232)" d="M 18.5,5.5 C 19.8221,5.33003 20.9887,5.66337 22,6.5C 24.4713,12.085 26.638,17.7517 28.5,23.5C 27.1667,23.5 25.8333,23.5 24.5,23.5C 24.7634,20.2657 23.2634,18.9324 20,19.5C 16.7366,18.9324 15.2366,20.2657 15.5,23.5C 14.1667,23.5 12.8333,23.5 11.5,23.5C 13.4392,17.3495 15.7725,11.3495 18.5,5.5 Z M 19.5,11.5 C 19.2488,13.1703 18.5822,14.6703 17.5,16C 23.2497,17.1781 23.9163,15.6781 19.5,11.5 Z"/></g>
<g><path style="opacity:1" fill="rgb(87, 62, 232)" d="M 48.5,5.5 C 49.8333,5.5 51.1667,5.5 52.5,5.5C 52.5,6.5 52.5,7.5 52.5,8.5C 63.557,10.2248 67.8903,16.5581 65.5,27.5C 63.4068,23.7898 60.7402,20.6231 57.5,18C 54.9011,15.9561 52.9011,16.2894 51.5,19C 48.0181,17.868 45.3515,15.5347 43.5,12C 44.9852,9.68302 46.6519,7.51636 48.5,5.5 Z"/></g>
<g><path style="opacity:1" fill="rgb(87, 62, 232)" d="M 67.5,36.5 C 67.5,42.8333 67.5,49.1667 67.5,55.5C 66.0019,58.3309 63.6685,59.9975 60.5,60.5C 61.0727,63.6167 59.906,65.6167 57,66.5C 53.937,65.1193 51.1037,63.2859 48.5,61C 42.449,60.7918 36.449,60.2918 30.5,59.5C 29.6667,58.5 28.8333,57.5 28,56.5C 27.3333,49.5 27.3333,42.5 28,35.5C 28.5,33.6667 29.6667,32.5 31.5,32C 42.1667,31.3333 52.8333,31.3333 63.5,32C 65.0703,33.3968 66.4036,34.8968 67.5,36.5 Z M 32.5,34.5 C 42.5056,34.3335 52.5056,34.5002 62.5,35C 63.1258,35.7504 63.6258,36.5838 64,37.5C 64.6667,43.1667 64.6667,48.8333 64,54.5C 62.5347,56.915 60.368,57.915 57.5,57.5C 57.6621,59.5273 57.4955,61.5273 57,63.5C 54.9261,61.5479 52.7594,59.7146 50.5,58C 44.5,57.6667 38.5,57.3333 32.5,57C 31.8742,56.2496 31.3742,55.4162 31,54.5C 30.3333,48.5 30.3333,42.5 31,36.5C 31.7172,35.9558 32.2172,35.2891 32.5,34.5 Z M 45.5,43.5 C 46.6009,42.4017 47.9343,42.235 49.5,43C 48.8742,43.7504 48.3742,44.5838 48,45.5C 47.2917,44.6195 46.4584,43.9528 45.5,43.5 Z"/></g>
<g><path style="opacity:1" fill="rgb(87, 62, 232)" d="M 45.5,35.5 C 48.7233,37.6101 52.3899,38.6101 56.5,38.5C 56.5,39.8333 56.5,41.1667 56.5,42.5C 53.2295,42.6787 51.5629,44.512 51.5,48C 52.0762,49.7144 53.2429,50.8811 55,51.5C 55.4828,52.448 55.6495,53.448 55.5,54.5C 52.495,54.747 49.995,53.747 48,51.5C 45.6174,53.9547 42.9507,54.9547 40,54.5C 39.2506,53.365 39.4173,52.365 40.5,51.5C 44.9563,50.2534 45.623,47.9201 42.5,44.5C 42.7093,43.914 43.0426,43.414 43.5,43C 41.0588,42.964 39.0588,42.1307 37.5,40.5C 37.7093,39.914 38.0426,39.414 38.5,39C 40.8098,38.5034 43.1432,38.3367 45.5,38.5C 45.5,37.5 45.5,36.5 45.5,35.5 Z M 45.5,43.5 C 46.4584,43.9528 47.2917,44.6195 48,45.5C 48.3742,44.5838 48.8742,43.7504 49.5,43C 47.9343,42.235 46.6009,42.4017 45.5,43.5 Z"/></g>
<g><path style="opacity:1" fill="rgb(87, 62, 232)" d="M 0.5,39.5 C 3.27404,42.7769 6.27404,45.9436 9.5,49C 10.8721,49.4017 12.2054,49.9017 13.5,50.5C 14.2807,49.2634 15.2807,48.2634 16.5,47.5C 26.1826,53.7663 25.516,58.433 14.5,61.5C 14.5,60.5 14.5,59.5 14.5,58.5C 3.74796,56.7379 -0.918708,50.4046 0.5,39.5 Z"/></g>
</svg>
